<svg width="231mm" height="153mm" viewBox="0 0 231 153" xmlns="http://www.w3.org/2000/svg" version="1.1" preserveAspectRatio="xMidYMid meet"><g id="svgGroup" stroke-linecap="round" fill-rule="evenodd" font-size="9pt" stroke="#000" stroke-width="0.25mm" fill="none" style="stroke:#000;stroke-width:0.25mm;fill:none"><path d="M 0 78 L 0 96 L 6.5 96 L 6.5 109 L 0 109 L 0 122 L 6.5 122 L 6.5 135 L 0 135 L 0 148 L 0 153 L 18 153 L 18 146.5 L 31 146.5 L 31 153 L 44 153 L 44 146.5 L 57 146.5 L 57 153 L 70 153 L 75 153 L 75 135 L 68.5 135 L 68.5 122 L 75 122 L 75 109 L 68.5 109 L 68.5 96 L 75 96 L 75 83 L 75 78 L 57 78 L 57 84.5 L 44 84.5 L 44 78 L 31 78 L 31 84.5 L 18 84.5 L 18 78 L 5 78 L 0 78 Z" id="front_outsideCutPath" stroke="#FF0000" stroke-width="0.25" style="stroke:#FF0000;stroke-width:0.25" vector-effect="non-scaling-stroke"/><path d="M 48.431 121.165 L 47.216 121.165 L 47.216 115.972 Q 47.216 115.347 47.034 114.923 A 1.446 1.446 0 0 0 46.769 114.507 Q 46.407 114.116 45.714 114.042 A 3.223 3.223 0 0 0 45.37 114.024 A 3.68 3.68 0 0 0 44.681 114.084 Q 44.298 114.157 44.003 114.32 A 1.714 1.714 0 0 0 43.524 114.705 A 1.988 1.988 0 0 0 43.179 115.309 Q 42.971 115.863 42.943 116.69 A 7.788 7.788 0 0 0 42.938 116.954 L 42.938 121.165 L 41.722 121.165 L 41.722 113.138 L 42.711 113.138 L 42.909 114.236 L 42.968 114.236 Q 43.341 113.643 44.015 113.317 A 3.292 3.292 0 0 1 45.186 113.005 A 3.981 3.981 0 0 1 45.516 112.991 A 4.8 4.8 0 0 1 46.333 113.056 Q 46.775 113.133 47.124 113.299 A 2.185 2.185 0 0 1 47.699 113.691 A 2.107 2.107 0 0 1 48.212 114.497 Q 48.431 115.087 48.431 115.928 L 48.431 121.165 Z M 25.074 113.138 L 25.074 114.083 L 23.031 114.083 L 23.031 121.165 L 21.815 121.165 L 21.815 114.083 L 20.38 114.083 L 20.38 113.533 L 21.815 113.094 L 21.815 112.647 A 4.928 4.928 0 0 1 21.93 111.53 Q 22.286 110.007 23.742 109.743 A 3.696 3.696 0 0 1 24.401 109.688 Q 25.038 109.688 25.895 109.944 L 25.58 110.919 Q 25.08 110.757 24.684 110.711 A 2.615 2.615 0 0 0 24.379 110.691 A 1.64 1.64 0 0 0 23.983 110.736 A 1.053 1.053 0 0 0 23.361 111.149 A 1.407 1.407 0 0 0 23.175 111.524 Q 23.051 111.891 23.034 112.435 A 5.74 5.74 0 0 0 23.031 112.618 L 23.031 113.138 L 25.074 113.138 Z M 54.62 120.162 L 54.62 121.092 Q 54.442 121.178 54.111 121.237 A 4.545 4.545 0 0 1 54.038 121.249 Q 53.679 121.307 53.387 121.311 A 3.113 3.113 0 0 1 53.346 121.312 Q 51.017 121.312 51.017 118.858 L 51.017 114.083 L 49.867 114.083 L 49.867 113.497 L 51.017 112.991 L 51.53 111.277 L 52.233 111.277 L 52.233 113.138 L 54.562 113.138 L 54.562 114.083 L 52.233 114.083 L 52.233 118.807 A 2.448 2.448 0 0 0 52.268 119.237 Q 52.31 119.473 52.403 119.659 A 1.179 1.179 0 0 0 52.577 119.92 A 1.129 1.129 0 0 0 53.271 120.29 A 1.625 1.625 0 0 0 53.522 120.308 A 3.993 3.993 0 0 0 54.107 120.266 A 3.68 3.68 0 0 0 54.144 120.261 A 6.577 6.577 0 0 0 54.32 120.23 Q 54.488 120.199 54.604 120.166 A 1.826 1.826 0 0 0 54.62 120.162 Z M 31.161 113.079 L 30.992 114.207 Q 30.578 114.116 30.244 114.1 A 2.852 2.852 0 0 0 30.114 114.097 A 2.107 2.107 0 0 0 28.557 114.77 A 2.882 2.882 0 0 0 28.447 114.888 A 2.776 2.776 0 0 0 27.777 116.447 A 3.69 3.69 0 0 0 27.755 116.858 L 27.755 121.165 L 26.539 121.165 L 26.539 113.138 L 27.543 113.138 L 27.682 114.625 L 27.74 114.625 A 4.106 4.106 0 0 1 28.2 113.969 A 3.136 3.136 0 0 1 28.817 113.416 A 2.424 2.424 0 0 1 30.201 112.991 A 5.582 5.582 0 0 1 30.701 113.013 A 4.074 4.074 0 0 1 31.161 113.079 Z M 39.591 117.144 Q 39.591 119.107 38.602 120.209 A 3.241 3.241 0 0 1 36.695 121.243 A 4.721 4.721 0 0 1 35.87 121.312 A 3.904 3.904 0 0 1 34.736 121.152 A 3.385 3.385 0 0 1 33.959 120.806 A 3.292 3.292 0 0 1 32.758 119.529 A 3.996 3.996 0 0 1 32.67 119.356 A 4.498 4.498 0 0 1 32.292 118.129 A 6.082 6.082 0 0 1 32.216 117.144 Q 32.216 115.181 33.197 114.086 A 3.216 3.216 0 0 1 35.073 113.064 A 4.722 4.722 0 0 1 35.922 112.991 A 4.085 4.085 0 0 1 37.121 113.159 A 3.183 3.183 0 0 1 38.599 114.112 A 3.786 3.786 0 0 1 39.426 115.715 Q 39.57 116.283 39.588 116.951 A 7.135 7.135 0 0 1 39.591 117.144 Z M 33.734 118.832 A 2.551 2.551 0 0 0 34.091 119.488 A 1.993 1.993 0 0 0 35.388 120.252 A 3.02 3.02 0 0 0 35.9 120.294 A 2.824 2.824 0 0 0 36.645 120.201 A 1.965 1.965 0 0 0 37.712 119.492 A 2.61 2.61 0 0 0 38.119 118.7 Q 38.238 118.334 38.291 117.888 A 6.404 6.404 0 0 0 38.331 117.144 A 6.066 6.066 0 0 0 38.274 116.28 Q 38.21 115.84 38.077 115.483 A 2.503 2.503 0 0 0 37.712 114.819 A 2 2 0 0 0 36.469 114.077 A 3.066 3.066 0 0 0 35.885 114.024 A 2.894 2.894 0 0 0 35.165 114.108 A 1.936 1.936 0 0 0 34.083 114.808 A 2.514 2.514 0 0 0 33.692 115.563 Q 33.577 115.91 33.523 116.334 A 6.425 6.425 0 0 0 33.475 117.144 Q 33.475 118.142 33.734 118.832 Z" id="front_labelLayer" stroke="#777777" fill="#777777" style="stroke:#777777;fill:#777777" vector-effect="non-scaling-stroke"/><path d="M 84.5 78 L 84.5 96 L 78 96 L 78 109 L 84.5 109 L 84.5 122 L 78 122 L 78 135 L 84.5 135 L 84.5 148 L 84.5 153 L 96 153 L 96 146.5 L 109 146.5 L 109 153 L 122 153 L 122 146.5 L 135 146.5 L 135 153 L 148 153 L 146.5 153 L 146.5 135 L 153 135 L 153 122 L 146.5 122 L 146.5 109 L 153 109 L 153 96 L 146.5 96 L 146.5 83 L 146.5 78 L 135 78 L 135 84.5 L 122 84.5 L 122 78 L 109 78 L 109 84.5 L 96 84.5 L 96 78 L 83 78 L 84.5 78 Z" id="left_outsideCutPath" stroke="#FF0000" stroke-width="0.25" style="stroke:#FF0000;stroke-width:0.25" vector-effect="non-scaling-stroke"/><path d="M 120.836 113.138 L 120.836 114.083 L 118.792 114.083 L 118.792 121.165 L 117.576 121.165 L 117.576 114.083 L 116.141 114.083 L 116.141 113.533 L 117.576 113.094 L 117.576 112.647 A 4.928 4.928 0 0 1 117.691 111.53 Q 118.047 110.007 119.503 109.743 A 3.696 3.696 0 0 1 120.162 109.688 Q 120.799 109.688 121.656 109.944 L 121.341 110.919 Q 120.842 110.757 120.446 110.711 A 2.615 2.615 0 0 0 120.14 110.691 A 1.64 1.64 0 0 0 119.745 110.736 A 1.053 1.053 0 0 0 119.122 111.149 A 1.407 1.407 0 0 0 118.936 111.524 Q 118.812 111.891 118.795 112.435 A 5.74 5.74 0 0 0 118.792 112.618 L 118.792 113.138 L 120.836 113.138 Z M 115.145 116.602 L 115.145 117.371 L 109.615 117.371 A 4.88 4.88 0 0 0 109.7 118.188 Q 109.788 118.633 109.964 118.985 A 2.283 2.283 0 0 0 110.329 119.517 A 2.209 2.209 0 0 0 111.489 120.171 A 3.347 3.347 0 0 0 112.237 120.25 A 6.421 6.421 0 0 0 114.642 119.773 A 7.358 7.358 0 0 0 114.801 119.708 L 114.801 120.792 A 7.299 7.299 0 0 1 114.135 121.043 A 5.582 5.582 0 0 1 113.581 121.191 Q 113.006 121.312 112.193 121.312 Q 110.413 121.312 109.384 120.228 Q 108.355 119.144 108.355 117.217 Q 108.355 115.635 108.99 114.584 A 3.6 3.6 0 0 1 109.311 114.134 A 3.116 3.116 0 0 1 111.582 113.001 A 4.298 4.298 0 0 1 111.878 112.991 A 3.704 3.704 0 0 1 112.921 113.131 A 2.818 2.818 0 0 1 114.266 113.984 A 3.4 3.4 0 0 1 115.036 115.537 A 4.949 4.949 0 0 1 115.145 116.602 Z M 125.992 120.162 L 125.992 121.092 Q 125.813 121.178 125.482 121.237 A 4.545 4.545 0 0 1 125.41 121.249 Q 125.051 121.307 124.759 121.311 A 3.113 3.113 0 0 1 124.718 121.312 Q 122.388 121.312 122.388 118.858 L 122.388 114.083 L 121.239 114.083 L 121.239 113.497 L 122.388 112.991 L 122.901 111.277 L 123.604 111.277 L 123.604 113.138 L 125.933 113.138 L 125.933 114.083 L 123.604 114.083 L 123.604 118.807 A 2.448 2.448 0 0 0 123.64 119.237 Q 123.682 119.473 123.774 119.659 A 1.179 1.179 0 0 0 123.948 119.92 A 1.129 1.129 0 0 0 124.643 120.29 A 1.625 1.625 0 0 0 124.893 120.308 A 3.993 3.993 0 0 0 125.478 120.266 A 3.68 3.68 0 0 0 125.516 120.261 A 6.577 6.577 0 0 0 125.691 120.23 Q 125.859 120.199 125.976 120.166 A 1.826 1.826 0 0 0 125.992 120.162 Z M 106.224 109.769 L 106.224 121.165 L 105.008 121.165 L 105.008 109.769 L 106.224 109.769 Z M 109.644 116.382 L 113.841 116.382 A 4.143 4.143 0 0 0 113.791 115.716 Q 113.733 115.359 113.607 115.073 A 1.881 1.881 0 0 0 113.328 114.621 A 1.666 1.666 0 0 0 112.325 114.05 A 2.499 2.499 0 0 0 111.864 114.009 A 2.397 2.397 0 0 0 111.171 114.105 A 1.852 1.852 0 0 0 110.322 114.639 Q 109.802 115.209 109.668 116.175 A 4.593 4.593 0 0 0 109.644 116.382 Z" id="left_labelLayer" stroke="#777777" fill="#777777" style="stroke:#777777;fill:#777777" vector-effect="non-scaling-stroke"/><path d="M 162.5 84.5 L 162.5 96 L 156 96 L 156 109 L 162.5 109 L 162.5 122 L 156 122 L 156 135 L 162.5 135 L 162.5 148 L 162.5 146.5 L 174 146.5 L 174 153 L 187 153 L 187 146.5 L 200 146.5 L 200 153 L 213 153 L 213 146.5 L 226 146.5 L 224.5 146.5 L 224.5 135 L 231 135 L 231 122 L 224.5 122 L 224.5 109 L 231 109 L 231 96 L 224.5 96 L 224.5 83 L 224.5 84.5 L 213 84.5 L 213 78 L 200 78 L 200 84.5 L 187 84.5 L 187 78 L 174 78 L 174 84.5 L 161 84.5 L 162.5 84.5 Z" id="top_outsideCutPath" stroke="#FF0000" stroke-width="0.25" style="stroke:#FF0000;stroke-width:0.25" vector-effect="non-scaling-stroke"/><path d="M 198.891 117.609 L 198.803 117.609 A 11.506 11.506 0 0 1 198.878 118.46 A 9.642 9.642 0 0 1 198.891 118.942 L 198.891 122.246 L 197.675 122.246 L 197.675 110.615 L 198.664 110.615 L 198.832 111.713 L 198.891 111.713 A 3.273 3.273 0 0 1 199.364 111.176 A 2.531 2.531 0 0 1 199.982 110.761 A 3.045 3.045 0 0 1 200.855 110.506 A 3.941 3.941 0 0 1 201.41 110.468 A 3.727 3.727 0 0 1 202.463 110.609 A 2.755 2.755 0 0 1 203.875 111.56 Q 204.584 112.452 204.714 113.931 A 7.917 7.917 0 0 1 204.743 114.621 Q 204.743 116.016 204.303 116.972 A 3.417 3.417 0 0 1 203.86 117.694 A 2.878 2.878 0 0 1 201.814 118.769 A 4.124 4.124 0 0 1 201.41 118.789 A 3.688 3.688 0 0 1 200.483 118.676 A 3.209 3.209 0 0 1 199.978 118.499 A 2.693 2.693 0 0 1 198.891 117.609 Z M 187.011 117.639 L 187.011 118.569 Q 186.832 118.655 186.501 118.714 A 4.545 4.545 0 0 1 186.428 118.726 Q 186.069 118.784 185.777 118.788 A 3.113 3.113 0 0 1 185.736 118.789 Q 183.407 118.789 183.407 116.335 L 183.407 111.56 L 182.257 111.56 L 182.257 110.974 L 183.407 110.468 L 183.92 108.754 L 184.623 108.754 L 184.623 110.615 L 186.952 110.615 L 186.952 111.56 L 184.623 111.56 L 184.623 116.284 A 2.448 2.448 0 0 0 184.658 116.714 Q 184.7 116.95 184.793 117.136 A 1.179 1.179 0 0 0 184.967 117.397 A 1.129 1.129 0 0 0 185.662 117.767 A 1.625 1.625 0 0 0 185.912 117.785 A 3.993 3.993 0 0 0 186.497 117.743 A 3.68 3.68 0 0 0 186.535 117.738 A 6.577 6.577 0 0 0 186.71 117.707 Q 186.878 117.676 186.994 117.643 A 1.826 1.826 0 0 0 187.011 117.639 Z M 195.543 114.621 Q 195.543 116.584 194.555 117.686 A 3.241 3.241 0 0 1 192.647 118.72 A 4.721 4.721 0 0 1 191.823 118.789 A 3.904 3.904 0 0 1 190.688 118.629 A 3.385 3.385 0 0 1 189.911 118.283 A 3.292 3.292 0 0 1 188.71 117.006 A 3.996 3.996 0 0 1 188.622 116.833 A 4.498 4.498 0 0 1 188.244 115.606 A 6.082 6.082 0 0 1 188.168 114.621 Q 188.168 112.658 189.149 111.563 A 3.216 3.216 0 0 1 191.026 110.541 A 4.722 4.722 0 0 1 191.874 110.468 A 4.085 4.085 0 0 1 193.073 110.636 A 3.183 3.183 0 0 1 194.551 111.589 A 3.786 3.786 0 0 1 195.378 113.192 Q 195.523 113.76 195.541 114.428 A 7.135 7.135 0 0 1 195.543 114.621 Z M 189.687 116.309 A 2.551 2.551 0 0 0 190.043 116.965 A 1.993 1.993 0 0 0 191.341 117.729 A 3.02 3.02 0 0 0 191.852 117.771 A 2.824 2.824 0 0 0 192.597 117.678 A 1.965 1.965 0 0 0 193.665 116.969 A 2.61 2.61 0 0 0 194.071 116.177 Q 194.191 115.811 194.243 115.365 A 6.404 6.404 0 0 0 194.284 114.621 A 6.066 6.066 0 0 0 194.226 113.757 Q 194.163 113.317 194.029 112.96 A 2.503 2.503 0 0 0 193.665 112.296 A 2 2 0 0 0 192.421 111.554 A 3.066 3.066 0 0 0 191.837 111.501 A 2.894 2.894 0 0 0 191.117 111.585 A 1.936 1.936 0 0 0 190.036 112.285 A 2.514 2.514 0 0 0 189.645 113.04 Q 189.529 113.387 189.475 113.811 A 6.425 6.425 0 0 0 189.428 114.621 Q 189.428 115.619 189.687 116.309 Z M 198.891 114.35 L 198.891 114.621 A 8.039 8.039 0 0 0 198.93 115.452 Q 199.018 116.29 199.297 116.8 A 1.834 1.834 0 0 0 199.455 117.042 Q 199.96 117.695 201.013 117.763 A 3.909 3.909 0 0 0 201.264 117.771 A 2.049 2.049 0 0 0 202.06 117.621 Q 202.552 117.416 202.893 116.928 A 2.94 2.94 0 0 0 203.296 116.069 Q 203.413 115.675 203.457 115.202 A 6.477 6.477 0 0 0 203.483 114.606 A 6.135 6.135 0 0 0 203.425 113.736 Q 203.299 112.854 202.893 112.303 A 1.891 1.891 0 0 0 201.51 111.515 A 2.616 2.616 0 0 0 201.234 111.501 Q 200.445 111.501 199.936 111.782 A 1.607 1.607 0 0 0 199.455 112.182 A 2.083 2.083 0 0 0 199.129 112.776 Q 198.923 113.336 198.895 114.164 A 7.738 7.738 0 0 0 198.891 114.35 Z" id="top_labelLayer" stroke="#777777" fill="#777777" style="stroke:#777777;fill:#777777" vector-effect="non-scaling-stroke"/><path d="M 0 0 L 0 18 L 6.5 18 L 6.5 31 L 0 31 L 0 44 L 6.5 44 L 6.5 57 L 0 57 L 0 70 L 0 75 L 18 75 L 18 68.5 L 31 68.5 L 31 75 L 44 75 L 44 68.5 L 57 68.5 L 57 75 L 70 75 L 75 75 L 75 57 L 68.5 57 L 68.5 44 L 75 44 L 75 31 L 68.5 31 L 68.5 18 L 75 18 L 75 5 L 75 0 L 57 0 L 57 6.5 L 44 6.5 L 44 0 L 31 0 L 31 6.5 L 18 6.5 L 18 0 L 5 0 L 0 0 Z" id="back_outsideCutPath" stroke="#FF0000" stroke-width="0.25" style="stroke:#FF0000;stroke-width:0.25" vector-effect="non-scaling-stroke"/><path d="M 47.769 39.016 L 47.827 39.016 Q 48.142 38.569 48.787 37.844 L 51.379 35.098 L 52.822 35.098 L 49.57 38.518 L 53.049 43.125 L 51.577 43.125 L 48.743 39.331 L 47.827 40.122 L 47.827 43.125 L 46.626 43.125 L 46.626 31.728 L 47.827 31.728 L 47.827 37.771 A 8.102 8.102 0 0 1 47.823 38 Q 47.813 38.375 47.771 38.986 A 50.575 50.575 0 0 1 47.769 39.016 Z M 23.167 42.092 L 23.079 42.092 L 22.822 43.125 L 21.951 43.125 L 21.951 31.728 L 23.167 31.728 L 23.167 34.497 Q 23.167 35.397 23.112 36.119 A 15.19 15.19 0 0 1 23.108 36.167 L 23.167 36.167 A 2.764 2.764 0 0 1 25.184 34.995 A 4.152 4.152 0 0 1 25.686 34.966 A 3.716 3.716 0 0 1 26.732 35.105 A 2.782 2.782 0 0 1 28.143 36.046 A 3.583 3.583 0 0 1 28.772 37.256 Q 28.926 37.754 28.984 38.352 A 7.804 7.804 0 0 1 29.019 39.104 Q 29.019 40.499 28.579 41.455 A 3.417 3.417 0 0 1 28.136 42.176 A 2.878 2.878 0 0 1 26.09 43.252 A 4.124 4.124 0 0 1 25.686 43.271 A 3.688 3.688 0 0 1 24.759 43.158 A 3.209 3.209 0 0 1 24.254 42.982 A 2.693 2.693 0 0 1 23.167 42.092 Z M 36.98 43.125 L 36.079 43.125 L 35.837 41.982 L 35.779 41.982 A 5.04 5.04 0 0 1 35.371 42.439 Q 35.152 42.654 34.933 42.805 A 2.24 2.24 0 0 1 34.581 43.004 A 2.804 2.804 0 0 1 34.002 43.187 Q 33.721 43.245 33.396 43.263 A 5.471 5.471 0 0 1 33.091 43.271 A 3.731 3.731 0 0 1 32.332 43.199 Q 31.868 43.102 31.511 42.878 A 2.094 2.094 0 0 1 31.219 42.656 A 1.998 1.998 0 0 1 30.617 41.602 A 3.059 3.059 0 0 1 30.542 40.906 A 2.104 2.104 0 0 1 31.739 38.92 Q 32.63 38.446 34.184 38.367 A 11.876 11.876 0 0 1 34.431 38.357 L 35.793 38.313 L 35.793 37.815 A 3.492 3.492 0 0 0 35.759 37.31 Q 35.722 37.052 35.642 36.845 A 1.357 1.357 0 0 0 35.387 36.42 A 1.234 1.234 0 0 0 34.881 36.09 Q 34.679 36.016 34.428 35.988 A 3.004 3.004 0 0 0 34.087 35.969 A 3.958 3.958 0 0 0 33.176 36.083 Q 32.758 36.182 32.303 36.367 A 8.143 8.143 0 0 0 31.816 36.584 L 31.443 35.654 A 5.606 5.606 0 0 1 32.525 35.209 A 6.381 6.381 0 0 1 32.743 35.149 A 5.631 5.631 0 0 1 34.16 34.966 A 5.135 5.135 0 0 1 34.942 35.021 Q 35.344 35.083 35.665 35.215 A 2.069 2.069 0 0 1 36.288 35.603 A 1.925 1.925 0 0 1 36.785 36.369 Q 36.901 36.684 36.948 37.075 A 4.784 4.784 0 0 1 36.98 37.646 L 36.98 43.125 Z M 44.839 35.369 L 44.465 36.401 A 5.409 5.409 0 0 0 43.879 36.206 A 6.46 6.46 0 0 0 43.586 36.134 A 5.022 5.022 0 0 0 43.204 36.063 Q 42.956 36.028 42.744 36.028 Q 40.571 36.028 40.328 38.489 A 6.718 6.718 0 0 0 40.298 39.148 A 5.888 5.888 0 0 0 40.356 40.005 Q 40.42 40.44 40.555 40.793 A 2.522 2.522 0 0 0 40.895 41.418 A 1.931 1.931 0 0 0 42.146 42.166 A 2.942 2.942 0 0 0 42.664 42.209 A 5.09 5.09 0 0 0 44.068 42.005 A 6.284 6.284 0 0 0 44.722 41.777 L 44.722 42.854 A 3.458 3.458 0 0 1 43.876 43.153 Q 43.343 43.271 42.693 43.271 A 4.544 4.544 0 0 1 41.587 43.145 A 3.081 3.081 0 0 1 39.994 42.198 A 3.517 3.517 0 0 1 39.262 40.855 Q 39.038 40.113 39.038 39.163 A 6.708 6.708 0 0 1 39.142 37.943 Q 39.268 37.262 39.547 36.726 A 3.352 3.352 0 0 1 40.009 36.05 A 3.148 3.148 0 0 1 41.732 35.058 A 4.773 4.773 0 0 1 42.773 34.951 A 5.487 5.487 0 0 1 43.931 35.076 Q 44.503 35.199 44.832 35.365 A 1.838 1.838 0 0 1 44.839 35.369 Z M 25.51 35.984 A 3.417 3.417 0 0 0 24.849 36.043 Q 24.472 36.118 24.185 36.286 A 1.617 1.617 0 0 0 23.716 36.698 A 2.081 2.081 0 0 0 23.414 37.272 Q 23.167 37.967 23.167 39.104 A 8.039 8.039 0 0 0 23.206 39.935 Q 23.294 40.773 23.573 41.283 A 1.834 1.834 0 0 0 23.73 41.525 Q 24.236 42.178 25.289 42.246 A 3.909 3.909 0 0 0 25.54 42.253 A 2.424 2.424 0 0 0 26.228 42.161 A 1.749 1.749 0 0 0 27.209 41.437 Q 27.602 40.853 27.714 39.906 A 6.967 6.967 0 0 0 27.759 39.089 Q 27.759 37.603 27.265 36.835 A 2.017 2.017 0 0 0 27.209 36.753 Q 26.66 35.984 25.51 35.984 Z M 35.764 39.902 L 35.764 39.177 L 34.548 39.228 Q 33.098 39.28 32.457 39.679 A 1.297 1.297 0 0 0 31.839 40.62 A 1.92 1.92 0 0 0 31.816 40.92 Q 31.816 41.5 32.125 41.836 A 1.083 1.083 0 0 0 32.216 41.924 A 1.324 1.324 0 0 0 32.711 42.187 Q 32.984 42.268 33.333 42.268 A 3.348 3.348 0 0 0 34.055 42.194 Q 34.691 42.054 35.116 41.645 Q 35.761 41.026 35.764 39.915 A 3.852 3.852 0 0 0 35.764 39.902 Z" id="back_labelLayer" stroke="#777777" fill="#777777" style="stroke:#777777;fill:#777777" vector-effect="non-scaling-stroke"/><path d="M 84.5 0 L 84.5 18 L 78 18 L 78 31 L 84.5 31 L 84.5 44 L 78 44 L 78 57 L 84.5 57 L 84.5 70 L 84.5 75 L 96 75 L 96 68.5 L 109 68.5 L 109 75 L 122 75 L 122 68.5 L 135 68.5 L 135 75 L 148 75 L 146.5 75 L 146.5 57 L 153 57 L 153 44 L 146.5 44 L 146.5 31 L 153 31 L 153 18 L 146.5 18 L 146.5 5 L 146.5 0 L 135 0 L 135 6.5 L 122 6.5 L 122 0 L 109 0 L 109 6.5 L 96 6.5 L 96 0 L 83 0 L 84.5 0 Z" id="right_outsideCutPath" stroke="#FF0000" stroke-width="0.25" style="stroke:#FF0000;stroke-width:0.25" vector-effect="non-scaling-stroke"/><path d="M 124.827 41.396 L 123.612 41.396 L 123.612 36.204 Q 123.612 35.578 123.43 35.155 A 1.446 1.446 0 0 0 123.165 34.739 Q 122.803 34.347 122.11 34.273 A 3.223 3.223 0 0 0 121.766 34.255 Q 120.938 34.255 120.403 34.549 A 1.702 1.702 0 0 0 119.917 34.944 A 2.023 2.023 0 0 0 119.573 35.552 Q 119.334 36.196 119.334 37.2 L 119.334 41.396 L 118.118 41.396 L 118.118 30 L 119.334 30 L 119.334 33.45 A 10.937 10.937 0 0 1 119.327 33.87 Q 119.313 34.22 119.276 34.482 L 119.349 34.482 Q 119.708 33.904 120.371 33.571 A 3.121 3.121 0 0 1 121.395 33.267 A 3.946 3.946 0 0 1 121.883 33.237 A 4.933 4.933 0 0 1 122.712 33.302 Q 123.58 33.45 124.091 33.937 A 2.117 2.117 0 0 1 124.613 34.757 Q 124.739 35.097 124.791 35.521 A 5.257 5.257 0 0 1 124.827 36.16 L 124.827 41.396 Z M 113.695 33.369 L 116.47 33.369 L 116.47 34.138 L 114.984 34.314 A 1.976 1.976 0 0 1 115.155 34.568 Q 115.259 34.751 115.35 34.984 A 2.339 2.339 0 0 1 115.488 35.543 A 3.004 3.004 0 0 1 115.511 35.918 A 2.787 2.787 0 0 1 115.383 36.782 A 2.254 2.254 0 0 1 114.705 37.8 A 2.697 2.697 0 0 1 113.645 38.359 Q 113.131 38.503 112.493 38.503 A 3.907 3.907 0 0 1 112.041 38.478 A 3.3 3.3 0 0 1 111.82 38.445 A 2.164 2.164 0 0 0 111.471 38.67 Q 111.29 38.816 111.186 38.982 A 0.915 0.915 0 0 0 111.043 39.477 A 0.63 0.63 0 0 0 111.075 39.684 Q 111.134 39.853 111.298 39.955 A 0.675 0.675 0 0 0 111.314 39.965 A 0.853 0.853 0 0 0 111.503 40.042 Q 111.701 40.1 112.003 40.116 A 4.625 4.625 0 0 0 112.244 40.122 L 113.665 40.122 A 4.977 4.977 0 0 1 114.421 40.176 Q 114.816 40.237 115.136 40.366 A 2.197 2.197 0 0 1 115.668 40.671 Q 116.368 41.221 116.368 42.268 A 2.632 2.632 0 0 1 116.218 43.179 Q 115.967 43.863 115.299 44.3 Q 114.553 44.788 113.33 44.936 A 9.637 9.637 0 0 1 112.178 45 A 6.812 6.812 0 0 1 111.265 44.943 Q 110.801 44.88 110.422 44.748 A 2.826 2.826 0 0 1 109.75 44.414 A 1.938 1.938 0 0 1 109.126 43.736 Q 108.926 43.365 108.901 42.895 A 2.567 2.567 0 0 1 108.897 42.759 A 1.859 1.859 0 0 1 109.366 41.492 A 2.123 2.123 0 0 1 110.095 40.96 A 3.009 3.009 0 0 1 110.684 40.767 A 1.262 1.262 0 0 1 110.194 40.37 A 1.498 1.498 0 0 1 110.168 40.334 Q 109.959 40.041 109.959 39.653 A 1.39 1.39 0 0 1 110.029 39.205 A 1.232 1.232 0 0 1 110.194 38.884 Q 110.371 38.635 110.703 38.399 A 3.819 3.819 0 0 1 110.933 38.247 A 2.131 2.131 0 0 1 110.007 37.506 A 2.642 2.642 0 0 1 109.919 37.375 A 2.513 2.513 0 0 1 109.533 36.164 A 3.067 3.067 0 0 1 109.527 35.969 A 3.513 3.513 0 0 1 109.62 35.139 A 2.311 2.311 0 0 1 110.318 33.937 Q 111.109 33.223 112.559 33.223 A 4.66 4.66 0 0 1 113.176 33.262 A 3.549 3.549 0 0 1 113.695 33.369 Z M 131.016 40.393 L 131.016 41.323 Q 130.838 41.409 130.507 41.468 A 4.545 4.545 0 0 1 130.434 41.481 Q 130.075 41.539 129.783 41.543 A 3.113 3.113 0 0 1 129.742 41.543 Q 127.413 41.543 127.413 39.089 L 127.413 34.314 L 126.263 34.314 L 126.263 33.728 L 127.413 33.223 L 127.926 31.509 L 128.629 31.509 L 128.629 33.369 L 130.958 33.369 L 130.958 34.314 L 128.629 34.314 L 128.629 39.038 A 2.448 2.448 0 0 0 128.664 39.468 Q 128.706 39.704 128.799 39.891 A 1.179 1.179 0 0 0 128.973 40.151 A 1.129 1.129 0 0 0 129.667 40.521 A 1.625 1.625 0 0 0 129.918 40.54 A 3.993 3.993 0 0 0 130.503 40.498 A 3.68 3.68 0 0 0 130.54 40.492 A 6.577 6.577 0 0 0 130.716 40.462 Q 130.884 40.43 131 40.398 A 1.826 1.826 0 0 0 131.016 40.393 Z M 104.605 33.311 L 104.437 34.438 Q 104.022 34.347 103.688 34.332 A 2.852 2.852 0 0 0 103.558 34.329 A 2.107 2.107 0 0 0 102.001 35.001 A 2.882 2.882 0 0 0 101.892 35.12 A 2.776 2.776 0 0 0 101.222 36.679 A 3.69 3.69 0 0 0 101.199 37.09 L 101.199 41.396 L 99.984 41.396 L 99.984 33.369 L 100.987 33.369 L 101.126 34.856 L 101.185 34.856 A 4.106 4.106 0 0 1 101.644 34.2 A 3.136 3.136 0 0 1 102.261 33.647 A 2.424 2.424 0 0 1 103.646 33.223 A 5.582 5.582 0 0 1 104.145 33.244 A 4.074 4.074 0 0 1 104.605 33.311 Z M 107.323 33.369 L 107.323 41.396 L 106.107 41.396 L 106.107 33.369 L 107.323 33.369 Z M 113.277 41.213 L 111.82 41.213 A 2.795 2.795 0 0 0 111.316 41.256 Q 111.03 41.308 110.804 41.425 A 1.424 1.424 0 0 0 110.531 41.609 A 1.281 1.281 0 0 0 110.11 42.335 A 1.945 1.945 0 0 0 110.069 42.744 Q 110.069 43.352 110.547 43.686 A 1.427 1.427 0 0 0 110.618 43.733 Q 111.165 44.068 112.183 44.07 A 6.246 6.246 0 0 0 112.193 44.07 Q 113.724 44.07 114.46 43.612 Q 115.196 43.154 115.196 42.371 Q 115.196 41.719 114.793 41.466 A 1.153 1.153 0 0 0 114.52 41.347 Q 114.086 41.213 113.277 41.213 Z M 110.728 35.94 A 2.373 2.373 0 0 0 110.777 36.437 Q 110.881 36.921 111.204 37.214 Q 111.633 37.604 112.365 37.642 A 3.131 3.131 0 0 0 112.53 37.646 Q 114.31 37.646 114.31 35.918 A 2.614 2.614 0 0 0 114.22 35.202 Q 113.909 34.109 112.508 34.109 A 2.551 2.551 0 0 0 111.988 34.159 Q 111.67 34.225 111.427 34.38 A 1.399 1.399 0 0 0 111.19 34.57 A 1.459 1.459 0 0 0 110.837 35.165 Q 110.728 35.5 110.728 35.94 Z M 106.209 30.582 A 0.569 0.569 0 0 0 106.084 30.761 Q 106.004 30.934 106.004 31.194 A 1.435 1.435 0 0 0 106.01 31.331 Q 106.022 31.454 106.056 31.554 A 0.628 0.628 0 0 0 106.209 31.805 A 0.682 0.682 0 0 0 106.456 31.963 A 0.772 0.772 0 0 0 106.722 32.007 A 0.709 0.709 0 0 0 107.227 31.805 Q 107.44 31.604 107.44 31.194 A 1.391 1.391 0 0 0 107.434 31.062 Q 107.422 30.942 107.389 30.844 A 0.614 0.614 0 0 0 107.227 30.586 A 0.716 0.716 0 0 0 106.722 30.388 A 0.928 0.928 0 0 0 106.66 30.39 A 0.703 0.703 0 0 0 106.209 30.582 Z" id="right_labelLayer" stroke="#777777" fill="#777777" style="stroke:#777777;fill:#777777" vector-effect="non-scaling-stroke"/><path d="M 162.5 6.5 L 162.5 18 L 156 18 L 156 31 L 162.5 31 L 162.5 44 L 156 44 L 156 57 L 162.5 57 L 162.5 70 L 162.5 68.5 L 174 68.5 L 174 75 L 187 75 L 187 68.5 L 200 68.5 L 200 75 L 213 75 L 213 68.5 L 226 68.5 L 224.5 68.5 L 224.5 57 L 231 57 L 231 44 L 224.5 44 L 224.5 31 L 231 31 L 231 18 L 224.5 18 L 224.5 5 L 224.5 6.5 L 213 6.5 L 213 0 L 200 0 L 200 6.5 L 187 6.5 L 187 0 L 174 0 L 174 6.5 L 161 6.5 L 162.5 6.5 Z" id="bottom_outsideCutPath" stroke="#FF0000" stroke-width="0.25" style="stroke:#FF0000;stroke-width:0.25" vector-effect="non-scaling-stroke"/><path d="M 218.175 43.125 L 216.959 43.125 L 216.959 37.903 Q 216.959 37.302 216.798 36.889 A 1.469 1.469 0 0 0 216.549 36.463 A 1.279 1.279 0 0 0 215.955 36.079 Q 215.743 36.01 215.484 35.991 A 2.822 2.822 0 0 0 215.275 35.984 Q 214.14 35.984 213.598 36.636 Q 213.058 37.284 213.056 38.63 A 6.709 6.709 0 0 0 213.056 38.642 L 213.056 43.125 L 211.84 43.125 L 211.84 37.903 Q 211.84 37.302 211.679 36.889 A 1.469 1.469 0 0 0 211.43 36.463 Q 211.075 36.048 210.374 35.992 A 2.847 2.847 0 0 0 210.148 35.984 A 3.02 3.02 0 0 0 209.523 36.044 Q 209.138 36.126 208.851 36.317 A 1.594 1.594 0 0 0 208.474 36.669 Q 207.943 37.353 207.943 38.913 L 207.943 43.125 L 206.728 43.125 L 206.728 35.097 L 207.716 35.097 L 207.914 36.196 L 207.973 36.196 A 2.39 2.39 0 0 1 208.943 35.281 A 2.887 2.887 0 0 1 210.083 34.961 A 3.486 3.486 0 0 1 210.346 34.951 Q 211.511 34.951 212.177 35.474 A 2.076 2.076 0 0 1 212.807 36.313 L 212.865 36.313 A 2.539 2.539 0 0 1 213.821 35.364 A 3.05 3.05 0 0 1 213.905 35.317 Q 214.586 34.951 215.458 34.951 A 4.226 4.226 0 0 1 216.225 35.016 Q 216.651 35.095 216.983 35.269 A 2.004 2.004 0 0 1 217.498 35.65 Q 217.991 36.16 218.125 37.114 A 5.577 5.577 0 0 1 218.175 37.888 L 218.175 43.125 Z M 170.04 42.092 L 169.953 42.092 L 169.696 43.125 L 168.825 43.125 L 168.825 31.728 L 170.04 31.728 L 170.04 34.497 Q 170.04 35.397 169.986 36.119 A 15.19 15.19 0 0 1 169.982 36.167 L 170.04 36.167 A 2.764 2.764 0 0 1 172.058 34.995 A 4.152 4.152 0 0 1 172.56 34.966 A 3.716 3.716 0 0 1 173.606 35.105 A 2.782 2.782 0 0 1 175.017 36.046 A 3.583 3.583 0 0 1 175.646 37.256 Q 175.8 37.754 175.858 38.351 A 7.804 7.804 0 0 1 175.893 39.104 Q 175.893 40.499 175.453 41.455 A 3.417 3.417 0 0 1 175.01 42.176 A 2.878 2.878 0 0 1 172.964 43.252 A 4.124 4.124 0 0 1 172.56 43.271 A 3.688 3.688 0 0 1 171.633 43.158 A 3.209 3.209 0 0 1 171.128 42.982 A 2.693 2.693 0 0 1 170.04 42.092 Z M 190.768 42.121 L 190.768 43.052 Q 190.589 43.138 190.258 43.197 A 4.545 4.545 0 0 1 190.186 43.209 Q 189.827 43.267 189.535 43.271 A 3.113 3.113 0 0 1 189.494 43.271 Q 187.165 43.271 187.165 40.818 L 187.165 36.042 L 186.015 36.042 L 186.015 35.456 L 187.165 34.951 L 187.677 33.237 L 188.38 33.237 L 188.38 35.097 L 190.709 35.097 L 190.709 36.042 L 188.38 36.042 L 188.38 40.766 A 2.448 2.448 0 0 0 188.416 41.196 Q 188.458 41.432 188.55 41.619 A 1.179 1.179 0 0 0 188.725 41.88 A 1.129 1.129 0 0 0 189.419 42.249 A 1.625 1.625 0 0 0 189.669 42.268 A 3.993 3.993 0 0 0 190.254 42.226 A 3.68 3.68 0 0 0 190.292 42.22 A 6.577 6.577 0 0 0 190.467 42.19 Q 190.635 42.159 190.752 42.126 A 1.826 1.826 0 0 0 190.768 42.121 Z M 196.063 42.121 L 196.063 43.052 Q 195.885 43.138 195.554 43.197 A 4.545 4.545 0 0 1 195.481 43.209 Q 195.122 43.267 194.83 43.271 A 3.113 3.113 0 0 1 194.789 43.271 Q 192.46 43.271 192.46 40.818 L 192.46 36.042 L 191.31 36.042 L 191.31 35.456 L 192.46 34.951 L 192.973 33.237 L 193.676 33.237 L 193.676 35.097 L 196.005 35.097 L 196.005 36.042 L 193.676 36.042 L 193.676 40.766 A 2.448 2.448 0 0 0 193.711 41.196 Q 193.753 41.432 193.846 41.619 A 1.179 1.179 0 0 0 194.02 41.88 A 1.129 1.129 0 0 0 194.714 42.249 A 1.625 1.625 0 0 0 194.965 42.268 A 3.993 3.993 0 0 0 195.55 42.226 A 3.68 3.68 0 0 0 195.587 42.22 A 6.577 6.577 0 0 0 195.763 42.19 Q 195.931 42.159 196.047 42.126 A 1.826 1.826 0 0 0 196.063 42.121 Z M 184.945 39.104 Q 184.945 41.067 183.957 42.169 A 3.241 3.241 0 0 1 182.049 43.202 A 4.721 4.721 0 0 1 181.225 43.271 A 3.904 3.904 0 0 1 180.09 43.111 A 3.385 3.385 0 0 1 179.313 42.766 A 3.292 3.292 0 0 1 178.112 41.489 A 3.996 3.996 0 0 1 178.024 41.316 A 4.498 4.498 0 0 1 177.646 40.089 A 6.082 6.082 0 0 1 177.57 39.104 Q 177.57 37.141 178.551 36.046 A 3.216 3.216 0 0 1 180.428 35.024 A 4.722 4.722 0 0 1 181.276 34.951 A 4.085 4.085 0 0 1 182.475 35.119 A 3.183 3.183 0 0 1 183.953 36.072 A 3.786 3.786 0 0 1 184.78 37.675 Q 184.925 38.242 184.943 38.911 A 7.135 7.135 0 0 1 184.945 39.104 Z M 204.596 39.104 Q 204.596 41.067 203.607 42.169 A 3.241 3.241 0 0 1 201.7 43.202 A 4.721 4.721 0 0 1 200.875 43.271 A 3.904 3.904 0 0 1 199.741 43.111 A 3.385 3.385 0 0 1 198.964 42.766 A 3.292 3.292 0 0 1 197.763 41.489 A 3.996 3.996 0 0 1 197.675 41.316 A 4.498 4.498 0 0 1 197.297 40.089 A 6.082 6.082 0 0 1 197.221 39.104 Q 197.221 37.141 198.202 36.046 A 3.216 3.216 0 0 1 200.079 35.024 A 4.722 4.722 0 0 1 200.927 34.951 A 4.085 4.085 0 0 1 202.126 35.119 A 3.183 3.183 0 0 1 203.604 36.072 A 3.786 3.786 0 0 1 204.431 37.675 Q 204.575 38.242 204.594 38.911 A 7.135 7.135 0 0 1 204.596 39.104 Z M 179.089 40.792 A 2.551 2.551 0 0 0 179.445 41.448 A 1.993 1.993 0 0 0 180.743 42.212 A 3.02 3.02 0 0 0 181.254 42.253 A 2.824 2.824 0 0 0 181.999 42.161 A 1.965 1.965 0 0 0 183.067 41.451 A 2.61 2.61 0 0 0 183.473 40.66 Q 183.593 40.294 183.645 39.847 A 6.404 6.404 0 0 0 183.686 39.104 A 6.066 6.066 0 0 0 183.628 38.239 Q 183.565 37.799 183.431 37.443 A 2.503 2.503 0 0 0 183.067 36.778 A 2 2 0 0 0 181.823 36.037 A 3.066 3.066 0 0 0 181.239 35.984 A 2.894 2.894 0 0 0 180.519 36.068 A 1.936 1.936 0 0 0 179.437 36.767 A 2.514 2.514 0 0 0 179.047 37.523 Q 178.931 37.87 178.877 38.294 A 6.425 6.425 0 0 0 178.83 39.104 Q 178.83 40.102 179.089 40.792 Z M 198.739 40.792 A 2.551 2.551 0 0 0 199.096 41.448 A 1.993 1.993 0 0 0 200.393 42.212 A 3.02 3.02 0 0 0 200.905 42.253 A 2.824 2.824 0 0 0 201.65 42.161 A 1.965 1.965 0 0 0 202.717 41.451 A 2.61 2.61 0 0 0 203.124 40.66 Q 203.243 40.294 203.296 39.847 A 6.404 6.404 0 0 0 203.336 39.104 A 6.066 6.066 0 0 0 203.279 38.239 Q 203.215 37.799 203.082 37.443 A 2.503 2.503 0 0 0 202.717 36.778 A 2 2 0 0 0 201.474 36.037 A 3.066 3.066 0 0 0 200.89 35.984 A 2.894 2.894 0 0 0 200.17 36.068 A 1.936 1.936 0 0 0 199.088 36.767 A 2.514 2.514 0 0 0 198.698 37.523 Q 198.582 37.87 198.528 38.294 A 6.425 6.425 0 0 0 198.48 39.104 Q 198.48 40.102 198.739 40.792 Z M 172.384 35.984 A 3.417 3.417 0 0 0 171.723 36.043 Q 171.346 36.118 171.059 36.285 A 1.617 1.617 0 0 0 170.59 36.698 A 2.081 2.081 0 0 0 170.288 37.272 Q 170.04 37.967 170.04 39.104 A 8.039 8.039 0 0 0 170.08 39.935 Q 170.168 40.773 170.447 41.283 A 1.834 1.834 0 0 0 170.604 41.524 Q 171.11 42.178 172.163 42.245 A 3.909 3.909 0 0 0 172.414 42.253 A 2.424 2.424 0 0 0 173.102 42.161 A 1.749 1.749 0 0 0 174.083 41.437 Q 174.476 40.853 174.588 39.905 A 6.967 6.967 0 0 0 174.633 39.089 Q 174.633 37.603 174.139 36.835 A 2.017 2.017 0 0 0 174.083 36.753 Q 173.534 35.984 172.384 35.984 Z" id="bottom_labelLayer" stroke="#777777" fill="#777777" style="stroke:#777777;fill:#777777" vector-effect="non-scaling-stroke"/></g></svg>