<?xml version="1.0" encoding="UTF-8" standalone="no"?>
<!-- Created with Polygonia (https://Polygonia.design) -->

<svg 
    xmlns="http://www.w3.org/2000/svg" 
    xmlns:svg="http://www.w3.org/2000/svg" 
    xmlns:inkscape="http://www.inkscape.org/namespaces/inkscape"
    width="75.5mm" 
    height="75.5mm" 
    viewBox="0 0 75.5 75.5" 
    version="1.1" 
>

<g 
    inkscape:label="Layer 1"
    inkscape:groupmode="layer"
    id="layer1"
    transform="translate(0,0)"
>
<path d=" M 37.32241466266615 35.375603502621026 Q 36.894829325332296 36.26880094233258 35.90750498327994 36.19250198689366 L 35.90750498327994 36.19250198689366 Q 34.92018064122759 36.11620303145474 35.47991964594609 36.93310151572737 L 35.47991964594609 36.93310151572737 Q 36.03965865066459 37.75 35.4799196459461 38.56689848427263 L 35.47991964594609 38.566898484272635 Q 34.92018064122759 39.38379696854526 35.90750498327994 39.30749801310634 L 35.90750498327995 39.30749801310634 Q 36.894829325332296 39.23119905766742 37.32241466266615 40.124396497378974 L 37.32241466266615 40.124396497378974 Q 37.75 41.01759393709053 38.17758533733385 40.124396497378974 L 38.17758533733385 40.124396497378974 Q 38.605170674667704 39.23119905766742 39.59249501672006 39.30749801310634 L 39.59249501672006 39.30749801310634 Q 40.579819358772404 39.38379696854527 40.02008035405391 38.566898484272635 L 40.0200803540539 38.56689848427263 Q 39.46034134933541 37.75 40.02008035405391 36.933101515727365 L 40.02008035405391 36.933101515727365 Q 40.57981935877241 36.11620303145474 39.59249501672006 36.19250198689366 L 39.59249501672006 36.19250198689366 Q 38.605170674667704 36.26880094233258 38.17758533733385 35.375603502621026 L 38.17758533733385 35.375603502621026 Q 37.74999999999999 34.48240606290947 37.32241466266615 35.375603502621026 z M 36.055811839347385 31.073590066164506 Q 36.249999999999986 30.66794386463965 36.24999999999999 30.218212964490256 L 36.24999999999999 29.928666519871694 Q 36.24999999999999 29.189389175103734 35.77634928411383 28.621774876633655 L 34.211168148094885 26.74609061668731 Q 32.70925584148331 24.94622655718529 32.47912162264571 22.613355053917616 L 32.47912162264571 22.613355053917616 Q 32.24898740380811 20.280483550649937 33.86590011840762 18.583178485906178 L 34.3537412515113 18.071082057613634 Q 35.74008417603955 16.6158106344705 37.74999999999999 16.6158106344705 L 37.74999999999999 16.6158106344705 Q 39.759915823960434 16.6158106344705 41.14625874848868 18.071082057613634 L 41.63409988159236 18.58317848590618 Q 43.25101259619188 20.280483550649937 43.02087837735428 22.613355053917612 L 43.02087837735428 22.613355053917612 Q 42.79074415851668 24.946226557185287 41.28883185190511 26.746090616687304 L 39.72365071588616 28.62177487663366 Q 39.24999999999999 29.18938917510374 39.24999999999999 29.928666519871697 L 39.24999999999999 30.21821296449025 Q 39.249999999999986 30.667943864639653 39.444188160652594 31.073590066164513 L 39.444188160652594 31.073590066164513 Q 39.6383763213052 31.479236267689373 39.863241771379904 31.08975788329315 L 43.76245167787424 24.336128215869053 Q 45.22417714281772 21.804345443869703 44.040369141816356 19.131301494320407 L 43.931982300146956 18.886563503793155 Q 42.856561140814996 16.45825754477111 40.3032805704075 15.727532679079207 L 40.3032805704075 15.727532679079207 Q 37.750000000000014 14.996807813387303 35.19671942959252 15.727532679079204 L 35.1967194295925 15.72753267907921 Q 32.64343885918498 16.45825754477112 31.568017699853023 18.886563503793184 L 31.45963085818363 19.131301494320414 Q 30.27582285718227 21.804345443869707 31.737548322125747 24.336128215869056 L 35.63675822862009 31.089757883293142 Q 35.861623678694784 31.479236267689362 36.055811839347385 31.073590066164506 z M 31.120965310893375 39.620994981001765 Q 31.375171146036262 39.25000000000001 30.92544024588687 39.25000000000001 L 23.12702043289819 39.25000000000002 Q 20.203569503011227 39.25000000000002 18.48054953776993 41.611729776845124 L 18.322793641536876 41.827964530430414 Q 16.757529572528632 43.973459553690226 17.401343560866223 46.55002782349829 L 17.401343560866223 46.55002782349829 Q 18.04515754920381 49.126596093306354 19.954624131273718 50.97243949742251 L 19.95462413127372 50.97243949742251 Q 21.86409071334363 52.81828290153868 24.50477594168384 52.53547196577645 L 24.770918679586302 52.506968728834494 Q 27.677746645828975 52.1956545561303 29.139472110772456 49.66387178413094 L 33.03868201726678 42.910242116706854 Q 33.26354746734148 42.52076373231063 32.81515347154599 42.55541495283373 L 32.81515347154599 42.55541495283373 Q 32.3667594757505 42.59006617335683 31.97728109135427 42.814931623431534 L 31.72652651473914 42.95970484574081 Q 31.086293553727785 43.329343518124794 30.831550509644494 44.02334421983794 L 29.989750859061814 46.316672975127716 Q 29.181979013480273 48.51729921666083 27.276720137304473 49.88303704808811 L 27.276720137304473 49.88303704808811 Q 25.371461261128673 51.24877487951541 23.093095599788832 50.69713992534205 L 22.405686517148382 50.53070532520955 Q 20.45221303304076 50.05773284578284 19.44725512106053 48.31709468276476 L 19.44725512106053 48.31709468276476 Q 18.4422972090803 46.57645651974668 19.00942776865967 44.648212617176824 L 19.208995718196448 43.96968158875178 Q 19.870448664936777 41.720741569834665 22.005841759950176 40.75360789799428 L 22.005841759950176 40.75360789799428 Q 24.141234854963578 39.78647422615389 26.450919007156696 40.18723640818499 L 28.857899793758328 40.60488090352841 Q 29.58629355372778 40.73126730677148 30.226526514739135 40.3616286343875 L 30.47728109135427 40.21685541207822 Q 30.86675947575049 39.991989962003515 31.120965310893375 39.620994981001765 z M 31.120965310893375 35.87900501899825 Q 30.866759475750488 35.50801003799649 30.477281091354268 35.28314458792179 L 30.22652651473913 35.138371365612514 Q 29.586293553727778 34.76873269322853 28.85789979375832 34.895119096471596 L 26.450919007156696 35.31276359181501 Q 24.141234854963578 35.713525773846115 22.005841759950176 34.74639210200572 L 22.005841759950176 34.74639210200572 Q 19.870448664936777 33.779258430165335 19.208995718196448 31.53031841124822 L 19.00942776865967 30.851787382823172 Q 18.4422972090803 28.92354348025333 19.447255121060522 27.182905317235253 L 19.447255121060522 27.182905317235253 Q 20.452213033040746 25.442267154217177 22.40568651714836 24.96929467479047 L 23.093095599788818 24.802860074657968 Q 25.37146126112866 24.25122512048461 27.27672013730446 25.616962951911898 L 27.27672013730446 25.616962951911898 Q 29.18197901348026 26.982700783339183 29.989750859061807 29.1833270248723 L 30.831550509644487 31.47665578016207 Q 31.086293553727778 32.17065648187521 31.726526514739135 32.5402951542592 L 31.977281091354268 32.68506837656847 Q 32.36675947575049 32.909933826643176 32.81515347154598 32.94458504716627 L 32.81515347154598 32.94458504716627 Q 33.263547467341475 32.97923626768937 33.03868201726677 32.58975788329315 L 29.13947211077243 25.83612821586906 Q 27.677746645828954 23.30434544386971 24.770918679586288 22.993031271165517 L 24.50477594168383 22.964528034223555 Q 21.86409071334363 22.681717098461323 19.954624131273718 24.527560502577483 L 19.954624131273718 24.527560502577483 Q 18.04515754920381 26.373403906693646 17.401343560866223 28.94997217650171 L 17.401343560866216 28.949972176501724 Q 16.757529572528625 31.526540446309802 18.322793641536876 33.67203546956963 L 18.480549537769924 33.88827022315491 Q 20.203569503011224 36.25000000000002 23.127020432898192 36.25000000000002 L 30.925440245886865 36.25000000000001 Q 31.375171146036262 36.25000000000001 31.120965310893375 35.87900501899825 z M 36.05581183934739 44.426409933835494 Q 35.86162367869479 44.02076373231064 35.636758228620096 44.41024211670686 L 31.73754832212576 51.163871784130954 Q 30.275822857182284 53.6956545561303 31.459630858183647 56.368698505679596 L 31.56801769985305 56.613436496206845 Q 32.64343885918501 59.04174245522889 35.196719429592505 59.772467320920796 L 35.196719429592505 59.772467320920796 Q 37.75 60.503192186612694 40.303280570407495 59.772467320920796 L 40.3032805704075 59.77246732092079 Q 42.856561140815 59.041742455228885 43.93198230014697 56.61343649620683 L 44.04036914181637 56.36869850567958 Q 45.22417714281774 53.69565455613028 43.76245167787425 51.16387178413093 L 39.863241771379904 44.41024211670685 Q 39.63837632130521 44.02076373231063 39.4441881606526 44.42640993383549 L 39.4441881606526 44.42640993383549 Q 39.25 44.83205613536035 39.25 45.281787035509744 L 39.25 45.5713334801283 Q 39.25 46.31061082489626 39.723650715886166 46.87822512336634 L 41.288831851905115 48.75390938331269 Q 42.790744158516695 50.55377344281471 43.02087837735429 52.886644946082384 L 43.02087837735429 52.886644946082384 Q 43.2510125961919 55.21951644935007 41.634099881592384 56.916821514093826 L 41.14625874848871 57.42891794238636 Q 39.759915823960455 58.8841893655295 37.75000000000001 58.8841893655295 L 37.75000000000001 58.8841893655295 Q 35.74008417603956 58.8841893655295 34.3537412515113 57.42891794238636 L 33.86590011840763 56.916821514093826 Q 32.248987403808115 55.21951644935007 32.479121622645714 52.886644946082384 L 32.479121622645714 52.886644946082384 Q 32.70925584148331 50.55377344281471 34.211168148094885 48.753909383312696 L 35.776349284113834 46.87822512336635 Q 36.25 46.310610824896266 36.25 45.57133348012831 L 36.25 45.28178703550975 Q 36.25 44.832056135360354 36.05581183934739 44.426409933835494 z M 42.68484652845402 42.555414952833736 Q 42.236452532658525 42.520763732310634 42.46131798273323 42.910242116706854 L 46.36052788922757 49.66387178413094 Q 47.82225335417105 52.195654556130286 50.72908132041371 52.50696872883448 L 50.99522405831617 52.53547196577644 Q 53.63590928665637 52.81828290153867 55.54537586872628 50.97243949742251 L 55.54537586872628 50.97243949742251 Q 57.45484245079619 49.126596093306354 58.09865643913378 46.55002782349829 L 58.098656439133784 46.55002782349828 Q 58.742470427471375 43.973459553690205 57.177206358463124 41.827964530430386 L 57.019450462230076 41.611729776845095 Q 55.296430496988776 39.249999999999986 52.3729795671018 39.24999999999999 L 44.574559754113125 39.25 Q 44.12482885396373 39.25 44.37903468910662 39.62099498100176 L 44.37903468910662 39.62099498100176 Q 44.6332405242495 39.99198996200352 45.02271890864573 40.21685541207822 L 45.27347348526086 40.36162863438749 Q 45.913706446272215 40.73126730677147 46.64210020624167 40.604880903528404 L 49.0490809928433 40.18723640818499 Q 51.35876514503642 39.786474226153885 53.49415824004983 40.75360789799427 L 53.49415824004983 40.75360789799427 Q 55.629551335063226 41.720741569834665 56.29100428180355 43.969681588751776 L 56.49057223134033 44.648212617176824 Q 57.0577027909197 46.57645651974667 56.05274487893948 48.31709468276475 L 56.05274487893948 48.31709468276475 Q 55.04778696695925 50.05773284578282 53.09431348285163 50.53070532520954 L 52.40690440021118 50.697139925342036 Q 50.128538738871335 51.248774879515395 48.223279862695534 49.883037048088106 L 48.223279862695534 49.883037048088106 Q 46.318020986519734 48.51729921666082 45.510249140938186 46.3166729751277 L 44.66844949035551 44.02334421983793 Q 44.41370644627222 43.32934351812479 43.773473485260865 42.959704845740816 L 43.52271890864573 42.814931623431534 Q 43.13324052424951 42.59006617335684 42.68484652845402 42.555414952833736 z M 44.379034689106625 35.87900501899824 Q 44.12482885396374 36.25 44.57455975411313 36.25 L 52.37297956710181 36.24999999999999 Q 55.296430496988776 36.249999999999986 57.01945046223007 33.88827022315488 L 57.177206358463124 33.67203546956959 Q 58.74247042747137 31.526540446309784 58.09865643913378 28.94997217650172 L 58.09865643913378 28.94997217650172 Q 57.45484245079619 26.37340390669366 55.54537586872629 24.527560502577494 L 55.54537586872628 24.52756050257749 Q 53.63590928665637 22.681717098461323 50.99522405831616 22.964528034223555 L 50.729081320413705 22.993031271165513 Q 47.82225335417104 23.304345443869707 46.360527889227555 25.83612821586906 L 42.46131798273322 32.589757883293146 Q 42.23645253265852 32.97923626768937 42.68484652845402 32.94458504716627 L 42.68484652845402 32.94458504716627 Q 43.13324052424951 32.90993382664317 43.52271890864573 32.68506837656847 L 43.773473485260865 32.54029515425919 Q 44.413706446272215 32.17065648187521 44.668449490355506 31.476655780162066 L 45.510249140938186 29.18332702487229 Q 46.318020986519734 26.98270078333918 48.223279862695534 25.61696295191189 L 48.223279862695534 25.61696295191189 Q 50.12853873887133 24.2512251204846 52.406904400211175 24.802860074657957 L 53.09431348285163 24.96929467479046 Q 55.04778696695925 25.44226715421717 56.05274487893947 27.182905317235246 L 56.05274487893947 27.182905317235246 Q 57.0577027909197 28.92354348025333 56.49057223134033 30.851787382823176 L 56.29100428180355 31.53031841124822 Q 55.629551335063226 33.779258430165335 53.49415824004983 34.74639210200572 L 53.49415824004983 34.74639210200572 Q 51.35876514503642 35.713525773846115 49.0490809928433 35.31276359181501 L 46.64210020624168 34.89511909647159 Q 45.91370644627222 34.76873269322853 45.273473485260865 35.13837136561251 L 45.02271890864573 35.28314458792179 Q 44.63324052424951 35.508010037996485 44.379034689106625 35.87900501899824 z M 13.107274880699364 50.245433173625315 Q 14.964549761398732 49.1731350212944 14.444658105747518 47.09250867897501 L 14.235669206784962 46.256127091182144 Q 13.506788652171188 43.33911916106989 15.278869662218305 40.910141799902796 L 15.545583267256333 40.54455958053496 Q 17.584377882341474 37.75000000000002 15.545583267256333 34.95544041946509 L 15.278869662218302 34.58985820009724 Q 13.506788652171181 32.16088083893014 14.235669206784955 29.24387290881787 L 14.444658105747518 28.40749132102499 Q 14.964549761398732 26.326864978705604 13.107274880699364 25.254566826374703 L 13.107274880699364 25.254566826374703 Q 11.25 24.182268674043804 11.25 26.326864978705615 L 11.25 49.173135021294414 Q 11.25 51.31773132595624 13.107274880699364 50.245433173625315 z M 13.857274880699368 53.276522086870855 Q 11.25 54.781832941094 11.25 57.79245464954027 L 11.25 60.25 Q 11.25 64.25 15.25 64.25 L 35.72217312697106 64.25 Q 36.25000000000001 64.25 36.25000000000001 63.72217312697105 L 36.25000000000001 63.72217312697105 Q 36.25000000000001 63.1943462539421 35.742545716174476 63.04911761448474 L 33.359356752175245 62.36707136550599 Q 30.46871350435048 61.53979647706988 29.251197909386047 58.79064062422154 L 29.067951222760616 58.37686875703976 Q 27.667188941170753 55.21394103700965 24.227632044495746 55.58230917650482 L 23.77767175283227 55.630498824318764 Q 20.788075147820717 55.950677316000004 18.626312454609725 53.860944274323856 L 18.626312454609725 53.860944274323856 Q 16.464549761398736 51.771211232647715 13.86067733836725 53.274557677020404 z M 39.25000000000001 63.72217312697105 Q 39.25000000000001 64.25 39.77782687302896 64.25 L 60.25 64.25 Q 64.25 64.25 64.25 60.25 L 64.25 57.79245464954019 Q 64.25 54.78183294109394 61.642725119300636 53.27652208687083 L 61.63932266163277 53.274557677020375 Q 59.03545023860127 51.77121123264771 56.873687545390275 53.860944274323856 L 56.873687545390275 53.860944274323856 Q 54.71192485217929 55.950677316 51.72232824716774 55.63049882431875 L 51.27236795550428 55.58230917650481 Q 47.83281105882927 55.213941037009626 46.43204877723941 58.376868757039745 L 46.24880209061397 58.79064062422153 Q 45.03128649564954 61.53979647706987 42.14064324782477 62.367071365505986 L 39.75745428382554 63.04911761448474 Q 39.25000000000001 63.1943462539421 39.25000000000001 63.72217312697105 z M 62.392725119300636 50.24543317362529 Q 64.25 51.31773132595619 64.25 49.17313502129438 L 64.25 26.326864978705597 Q 64.25 24.182268674043776 62.392725119300636 25.254566826374692 L 62.392725119300636 25.254566826374692 Q 60.53545023860127 26.326864978705608 61.055341894252486 28.407491321025002 L 61.26433079321504 29.24387290881787 Q 61.99321134782881 32.160880838930126 60.22113033778169 34.589858200097225 L 59.95441673274367 34.955440419465056 Q 57.91562211765853 37.749999999999986 59.95441673274367 40.54455958053492 L 60.2211303377817 40.91014179990277 Q 61.99321134782882 43.33911916106987 61.264330793215045 46.25612709118213 L 61.05534189425248 47.09250867897501 Q 60.53545023860127 49.17313502129439 62.392725119300636 50.24543317362529 z M 61.642725119300636 22.22347791312916 Q 64.25 20.71816705890602 64.25 17.70754535045976 L 64.25 15.25 Q 64.25 11.25 60.25 11.25 L 39.77782687302895 11.25 Q 39.25 11.25 39.25 11.77782687302895 L 39.25 11.77782687302895 Q 39.25 12.3056537460579 39.75745428382554 12.45088238551526 L 42.14064324782477 13.132928634494014 Q 45.03128649564953 13.960203522930133 46.248802090613964 16.709359375778472 L 46.43204877723939 17.12313124296025 Q 47.83281105882925 20.286058962990364 51.27236795550426 19.91769082349518 L 51.72232824716773 19.86950117568124 Q 54.71192485217929 19.549322684 56.87368754539028 21.639055725676148 L 56.87368754539028 21.639055725676148 Q 59.03545023860127 23.7287887673523 61.63932266163277 22.22544232297961 z M 36.25 11.77782687302895 Q 36.25 11.25 35.72217312697105 11.25 L 15.25 11.25 Q 11.25 11.25 11.25 15.25 L 11.25 17.707545350459803 Q 11.25 20.718167058906054 13.857274880699364 22.223477913129173 L 13.860677338367232 22.22544232297962 Q 16.464549761398732 23.728788767352288 18.626312454609725 21.639055725676144 L 18.626312454609725 21.639055725676144 Q 20.788075147820717 19.549322684 23.77767175283227 19.869501175681243 L 24.227632044495728 19.917690823495185 Q 27.667188941170735 20.286058962990367 29.06795122276059 17.12313124296025 L 29.251197909386015 16.709359375778487 Q 30.46871350435045 13.960203522930133 33.35935675217523 13.132928634494014 L 35.74254571617447 12.45088238551526 Q 36.25 12.3056537460579 36.25 11.77782687302895 z M 37.74999999999999 19.6158106344705 Q 37.02556169490414 19.6158106344705 36.52587911787567 20.14033725925167 L 36.19382338279857 20.488902692521314 Q 35.369473663893146 21.354238799031446 35.48680286595603 22.543605392909402 L 35.48680286595603 22.543605392909402 Q 35.60413206801891 23.732971986787355 36.369851192246664 24.650595689119342 L 36.67706603400946 25.01875629996215 Q 37.74999999999999 26.304540613136943 38.822933965990536 25.01875629996215 L 39.13014880775333 24.65059568911934 Q 39.89586793198107 23.732971986787355 40.013197134043956 22.5436053929094 L 40.013197134043956 22.5436053929094 Q 40.13052633610684 21.354238799031446 39.306176617201416 20.488902692521318 L 38.97412088212431 20.14033725925167 Q 38.47443830509584 19.6158106344705 37.74999999999999 19.6158106344705 z M 23.579539543129005 47.72823713701112 Q 24.74111745363141 48.009476881930716 25.712474537310847 47.313183515399515 L 25.712474537310847 47.313183515399515 Q 26.683831620990283 46.61689014886832 27.095657496210634 45.49494608395753 L 27.26088651699191 45.04480992114993 Q 27.837941412993537 43.47272969343153 26.187952551001366 43.18643377888793 L 25.71550868845729 43.10445822692314 Q 24.53796368900919 42.90013786434433 23.44927740326687 43.393211091691086 L 23.44927740326687 43.393211091691086 Q 22.360591117524546 43.88628431903785 22.023362925927568 45.03286017046757 L 21.887524273373483 45.494711589151464 Q 21.683112179865915 46.1897127070772 22.045331332413845 46.817094682764754 L 22.045331332413845 46.817094682764754 Q 22.407550484961778 47.44447665845231 23.111645155497833 47.61495115159686 z M 22.04533133241384 28.682905317235253 Q 21.683112179865915 29.3102872929228 21.88752427337348 30.00528841084852 L 22.02336292592757 30.467139829532428 Q 22.360591117524546 31.61371568096215 23.44927740326687 32.106788908308914 L 23.44927740326687 32.106788908308914 Q 24.53796368900919 32.59986213565567 25.71550868845729 32.395541773076864 L 26.18795255100136 32.313566221112076 Q 27.83794141299353 32.027270306568475 27.2608865169919 30.45519007885008 L 27.095657496210624 30.005053916042478 Q 26.68383162099027 28.883109851131685 25.712474537310833 28.18681648460049 L 25.712474537310833 28.18681648460049 Q 24.741117453631396 27.490523118069298 23.579539543128995 27.771762862988894 L 23.111645155497808 27.88504884840315 Q 22.407550484961767 28.055523341547705 22.04533133241384 28.682905317235253 z M 39.30617661720144 55.011097307478686 Q 40.13052633610686 54.14576120096855 40.01319713404398 52.9563946070906 L 40.01319713404398 52.9563946070906 Q 39.89586793198109 51.767028013212645 39.13014880775334 50.84940431088066 L 38.82293396599055 50.48124370003785 Q 37.75000000000001 49.19545938686305 36.677066034009464 50.48124370003785 L 36.369851192246664 50.849404310880665 Q 35.60413206801892 51.767028013212645 35.48680286595604 52.9563946070906 L 35.48680286595604 52.9563946070906 Q 35.369473663893146 54.14576120096855 36.19382338279857 55.011097307478686 L 36.52587911787567 55.35966274074833 Q 37.02556169490415 55.8841893655295 37.75000000000001 55.8841893655295 L 37.75000000000001 55.8841893655295 Q 38.47443830509586 55.8841893655295 38.97412088212434 55.35966274074833 z M 53.47663707407243 45.03286017046757 Q 53.13940888247545 43.88628431903785 52.05072259673313 43.393211091691086 L 52.05072259673313 43.393211091691086 Q 50.96203631099081 42.90013786434432 49.78449131154271 43.104458226923136 L 49.31204744899864 43.186433778887924 Q 47.66205858700647 43.472729693431525 48.2391134830081 45.04480992114992 L 48.40434250378937 45.49494608395752 Q 48.816168379009724 46.616890148868315 49.78752546268916 47.313183515399515 L 49.78752546268916 47.313183515399515 Q 50.758882546368596 48.00947688193071 51.920460456871 47.728237137011114 L 52.38835484450219 47.61495115159685 Q 53.09244951503823 47.4444766584523 53.45466866758616 46.81709468276475 L 53.45466866758616 46.81709468276475 Q 53.816887820134085 46.18971270707719 53.61247572662652 45.49471158915147 z M 51.920460456871 27.771762862988886 Q 50.758882546368596 27.49052311806929 49.78752546268916 28.186816484600485 L 49.78752546268916 28.186816484600485 Q 48.816168379009724 28.88310985113168 48.40434250378937 30.005053916042474 L 48.2391134830081 30.455190078850077 Q 47.66205858700647 32.02727030656847 49.31204744899864 32.31356622111207 L 49.78449131154271 32.395541773076864 Q 50.96203631099081 32.59986213565567 52.05072259673313 32.106788908308914 L 52.05072259673313 32.106788908308914 Q 53.13940888247545 31.61371568096215 53.47663707407243 30.467139829532428 L 53.61247572662652 30.00528841084853 Q 53.816887820134085 29.3102872929228 53.454668667586155 28.68290531723525 L 53.454668667586155 28.68290531723525 Q 53.092449515038226 28.055523341547698 52.38835484450218 27.885048848403144 z M 0.25 4.25 Q 0.25 0.25 4.25 0.25 L 71.25 0.25 Q 75.25 0.25 75.25 4.25 L 75.25 71.25 Q 75.25 75.25 71.25 75.25 L 4.25 75.25 Q 0.25 75.25 0.25 71.25 z" style="fill:#ffc74f; stroke:#000000; stroke-width:0.25; " />
</g>
<defs>
  <thevaportrail:screendesigner xmlns:thevaportrail="http://thevaportrail.com">
    <thevaportrail:screendesignerdata id="ID_ScreenDesignerData">
      {"reserved":0,"frame":{"shape":"0","width":75,"height":75,"radius":87,"aspect":1,"lockAspect":false,"rotation":0,"border":11,"measure":2,"render":0,"margin":0,"fixedBounds":false,"docWidth":200,"docHeight":200},"tiling":{"shape":"3","size":62,"centered":true,"orthocentered":false,"segwidth":2,"showTiles":false,"mirrorSeg":true,"rotateSeg":1,"endCaps":0,"offsetX":0,"offsetY":0,"rotation":0},"general":{"units":2,"renderLine":true,"renderFill":true,"showBounds":false,"drillHoleSize":0.1,"fillColor":"#ffc74f","lineColor":"#000000","backColor":"#ffffff","renderBack":false,"cornerSize":4,"cornerStyle":"2","curveFrameOutsideCorner":true,"curveFrameInsideCorner":true,"curveFrameToSegmentCorner":true,"curveSegmentCorners":true,"lineWidth":0.25,"dpi":72,"showMinBounds":false},"diags":{"showCenterPoly":false,"showSegments":false},"drillholes":{"dhFrameVertex":false,"dhFrameVertexSize":0.5,"dhFrameVertexOffset":0},"elements":[{"ptA":{"x":0.2529411764705882,"y":0.37941176470588234},"ptB":{"x":0.2676470588235294,"y":0.4294117647058823},"mirror":true,"rotate":1,"visible":true,"width":3,"id":1},{"ptA":{"x":0.31268148862275613,"y":0.4498081561490658},"ptB":{"x":0.38986795670183433,"y":0.436415235155398},"mirror":true,"rotate":1,"visible":true,"width":3,"id":2},{"ptA":{"x":0.31268148862275613,"y":0.4498081561490658},"ptB":{"x":0.2676470588235294,"y":0.4294117647058823},"mirror":true,"rotate":1,"visible":true,"width":3,"id":3},{"ptA":{"x":0.47535539669235627,"y":0.4573142949387811},"ptB":{"x":0.3721295510531868,"y":0.27852188563747754},"mirror":false,"rotate":1,"visible":true,"width":3,"id":4},{"ptA":{"x":0.3721295510531868,"y":0.27852188563747754},"ptB":{"x":0.27058823529411763,"y":0.2676470588235294},"mirror":true,"rotate":1,"visible":true,"width":3,"id":5},{"ptA":{"x":0.27058823529411763,"y":0.2676470588235294},"ptB":{"x":0.20588614321775212,"y":0.3301932856143702},"mirror":true,"rotate":1,"visible":true,"width":3,"id":6},{"ptA":{"x":0.2529411764705882,"y":0.37941176470588234},"ptB":{"x":0.26248964477182246,"y":0.36287333247368825},"mirror":true,"rotate":1,"visible":true,"width":3,"id":8},{"ptA":{"x":0.20588614321775217,"y":0.33019328561437},"ptB":{"x":0.12499999999999983,"y":0.2834936490538904},"mirror":false,"rotate":1,"visible":true,"width":3,"id":9},{"ptA":{"x":0.3898679567018332,"y":0.4364152351553999},"ptB":{"x":0.418449290188376,"y":0.45291667573765376},"mirror":false,"rotate":1,"visible":true,"width":3,"id":10},{"ptA":{"x":0.47535539669235627,"y":0.4573142949387811},"ptB":{"x":0.418449290188376,"y":0.45291667573765376},"mirror":true,"rotate":1,"visible":true,"width":3,"id":11}],"nextElementId":12,"dirty":false}
    </thevaportrail:screendesignerdata>
  </thevaportrail:screendesigner>
</defs>
</svg>
