<?xml version="1.0" encoding="UTF-8" standalone="no"?>
<!-- Created with Polygonia (https://Polygonia.design) -->

<svg 
    xmlns="http://www.w3.org/2000/svg" 
    xmlns:svg="http://www.w3.org/2000/svg" 
    xmlns:inkscape="http://www.inkscape.org/namespaces/inkscape"
    width="76mm" 
    height="76mm" 
    viewBox="0 0 76 76" 
    version="1.1" 
>

<g 
    inkscape:label="Layer 1"
    inkscape:groupmode="layer"
    id="layer1"
    transform="translate(0,0)"
>
<path d=" M 55.802317333366744 63.54466789873217 A 0.7374038913016864 0.7374038913016864 0 0 0 56.50678294232706 64.5 L 63.5 64.5 A 1 1 0 0 0 64.5 63.5 L 64.5 56.506782942327064 A 0.7374038913016889 0.7374038913016889 0 0 0 63.54466789873217 55.802317333366744 L 62.455332101267835 56.1393061052442 A 3.2325581395348846 3.2325581395348846 0 0 1 60.54466789873218 56.1393061052442 L 55.12140323651221 54.46160552628407 A 0.5274725274725308 0.5274725274725308 0 0 0 54.461605526284075 55.12140323651221 L 56.1393061052442 60.54466789873218 A 3.2325581395348895 3.2325581395348895 0 0 1 56.1393061052442 62.455332101267835 z M 52.99903687738231 62.455332101267835 A 3.2325581395348895 3.2325581395348895 0 0 0 52.99903687738231 60.54466789873218 L 51.339055948778324 55.17868303650067 A 0.7592436226278974 0.7592436226278974 0 0 0 50.202717510408405 54.76469052734957 L 48.421254570011634 55.91165981774201 A 16.0422684343336 16.0422684343336 0 0 1 46.67892746521313 56.88573047744351 L 44.73838423564919 57.817191227634204 A 10.736183554027985 10.736183554027985 0 0 1 43.061879078869815 58.45565998430351 L 43.061879078869815 58.45565998430351 A 0.8480369539304544 0.8480369539304544 0 0 0 42.49688132968002 59.5532734342649 L 42.85178513466668 60.557181701068544 A 2.8286771026346327 2.8286771026346327 0 0 1 42.85178513466667 62.44281829893148 L 42.45783299318713 63.55718170106854 A 0.70712761124538 0.70712761124538 0 0 0 43.124525844748966 64.5 L 51.366513714465164 64.5 A 1.3561089272729134 1.3561089272729134 0 0 0 52.66204810550485 63.54466789873217 z M 23.33795189449515 63.54466789873217 A 1.3561089272729108 1.3561089272729108 0 0 0 24.633486285534836 64.5 L 32.875474155251034 64.5 A 0.7071276112453759 0.7071276112453759 0 0 0 33.54216700681287 63.55718170106854 L 33.14821486533333 62.44281829893148 A 2.8286771026346282 2.8286771026346282 0 0 1 33.14821486533333 60.557181701068544 L 33.50311867031998 59.553273434264895 A 0.8480369539304458 0.8480369539304458 0 0 0 32.9381209211302 58.45565998430351 L 32.9381209211302 58.45565998430351 A 10.736183554027964 10.736183554027964 0 0 1 31.261615764350843 57.81719122763421 L 29.32107253478685 56.885730477443495 A 16.042268434333614 16.042268434333614 0 0 1 27.57874542998835 55.911659817742 L 25.797282489591602 54.76469052734957 A 0.7592436226279019 0.7592436226279019 0 0 0 24.660944051221684 55.17868303650067 L 23.00096312261769 60.54466789873218 A 3.2325581395348864 3.2325581395348864 0 0 0 23.00096312261769 62.455332101267835 z M 19.860693894755798 62.45533210126783 A 3.232558139534888 3.232558139534888 0 0 1 19.860693894755798 60.54466789873217 L 21.538394473715933 55.121403236512215 A 0.5274725274725274 0.5274725274725274 0 0 0 20.878596763487792 54.461605526284075 L 15.455332101267839 56.1393061052442 A 3.2325581395348895 3.2325581395348895 0 0 1 13.544667898732182 56.1393061052442 L 12.455332101267828 55.802317333366744 A 0.7374038913016864 0.7374038913016864 0 0 0 11.5 56.50678294232706 L 11.5 63.5 A 1 1 0 0 0 12.5 64.5 L 19.493217057672943 64.5 A 0.7374038913016889 0.7374038913016889 0 0 0 20.197682666633256 63.54466789873217 z M 39.669835862574665 62.44281829893147 A 2.828677102634632 2.828677102634632 0 0 0 39.669835862574665 60.557181701068544 L 38.64036977031791 57.64515453796308 A 0.9421274561805446 0.9421274561805446 0 0 1 39.26805455424722 56.42575983742685 L 40.098393076564896 56.18678588470004 A 0.7519785596390118 0.7519785596390118 0 0 0 40.52693389019092 55.06374873022426 L 38.53245111874145 51.89303252945845 A 0.6290322580645168 0.6290322580645168 0 0 0 37.46754888125855 51.89303252945845 L 35.47306610980909 55.06374873022426 A 0.7519785596390133 0.7519785596390133 0 0 0 35.90160692343511 56.18678588470004 L 36.731945445752785 56.42575983742685 A 0.942127456180543 0.942127456180543 0 0 1 37.3596302296821 57.64515453796308 L 36.330164137425335 60.557181701068544 A 2.828677102634628 2.828677102634628 0 0 0 36.330164137425335 62.44281829893147 L 36.74325591772613 63.611321559154916 A 1.3329653059324233 1.3329653059324233 0 0 0 38 64.5 L 38 64.5 A 1.3329653059324258 1.3329653059324258 0 0 0 39.25674408227387 63.611321559154916 z M 63.54466789873217 20.19768266663326 A 0.7374038913016864 0.7374038913016864 0 0 0 64.5 19.493217057672947 L 64.5 12.5 A 1 1 0 0 0 63.5 11.5 L 56.506782942327064 11.5 A 0.7374038913016889 0.7374038913016889 0 0 0 55.802317333366744 12.455332101267828 L 56.1393061052442 13.544667898732179 A 3.2325581395349006 3.2325581395349006 0 0 1 56.1393061052442 15.455332101267835 L 54.461605526284075 20.878596763487792 A 0.5274725274725274 0.5274725274725274 0 0 0 55.12140323651221 21.538394473715933 L 60.54466789873217 19.8606938947558 A 3.2325581395348895 3.2325581395348895 0 0 1 62.45533210126783 19.8606938947558 z M 62.45533210126783 23.000963122617698 A 3.2325581395348912 3.2325581395348912 0 0 0 60.54466789873217 23.000963122617694 L 55.17868303650067 24.660944051221684 A 0.7592436226278957 0.7592436226278957 0 0 0 54.76469052734957 25.797282489591602 L 55.911659817742006 27.578745429988363 A 16.042268434333593 16.042268434333593 0 0 1 56.8857304774435 29.321072534786865 L 57.817191227634204 31.261615764350818 A 10.736183554028 10.736183554028 0 0 1 58.45565998430351 32.93812092113019 L 58.45565998430351 32.93812092113019 A 0.848036953930451 0.848036953930451 0 0 0 59.553273434264895 33.50311867031998 L 60.557181701068544 33.14821486533333 A 2.8286771026346407 2.8286771026346407 0 0 1 62.44281829893148 33.14821486533333 L 63.55718170106854 33.542167006812875 A 0.7071276112453788 0.7071276112453788 0 0 0 64.5 32.875474155251034 L 64.5 24.633486285534843 A 1.3561089272729099 1.3561089272729099 0 0 0 63.54466789873217 23.337951894495156 z M 63.54466789873217 52.66204810550485 A 1.3561089272729108 1.3561089272729108 0 0 0 64.5 51.366513714465164 L 64.5 43.12452584474897 A 0.7071276112453759 0.7071276112453759 0 0 0 63.55718170106854 42.45783299318713 L 62.44281829893147 42.85178513466668 A 2.828677102634618 2.828677102634618 0 0 1 60.557181701068544 42.85178513466668 L 59.553273434264895 42.49688132968002 A 0.8480369539304442 0.8480369539304442 0 0 0 58.45565998430351 43.0618790788698 L 58.45565998430351 43.0618790788698 A 10.736183554027953 10.736183554027953 0 0 1 57.81719122763421 44.73838423564916 L 56.885730477443495 46.67892746521315 A 16.042268434333643 16.042268434333643 0 0 1 55.911659817742 48.421254570011655 L 54.76469052734957 50.2027175104084 A 0.7592436226279029 0.7592436226279029 0 0 0 55.17868303650067 51.33905594877832 L 60.544667898732186 52.99903687738231 A 3.232558139534883 3.232558139534883 0 0 0 62.45533210126784 52.99903687738231 z M 62.44281829893147 36.330164137425335 A 2.828677102634642 2.828677102634642 0 0 0 60.557181701068544 36.330164137425335 L 57.64515453796308 37.3596302296821 A 0.9421274561805442 0.9421274561805442 0 0 1 56.42575983742685 36.73194544575278 L 56.18678588470004 35.901606923435104 A 0.7519785596390118 0.7519785596390118 0 0 0 55.06374873022426 35.47306610980908 L 51.89303252945845 37.46754888125855 A 0.629032258064517 0.629032258064517 0 0 0 51.89303252945845 38.53245111874145 L 55.06374873022426 40.52693389019092 A 0.7519785596390131 0.7519785596390131 0 0 0 56.18678588470004 40.098393076564896 L 56.42575983742685 39.268054554247215 A 0.9421274561805429 0.9421274561805429 0 0 1 57.64515453796308 38.6403697703179 L 60.557181701068544 39.66983586257467 A 2.828677102634623 2.828677102634623 0 0 0 62.44281829893147 39.66983586257467 L 63.611321559154916 39.25674408227387 A 1.3329653059324251 1.3329653059324251 0 0 0 64.5 38 L 64.5 38 A 1.3329653059324222 1.3329653059324222 0 0 0 63.611321559154916 36.74325591772614 z M 31.450615233672707 34.28147210427561 A 3.7172891057404627 3.7172891057404627 0 0 0 30.486607296142907 32.607927639702545 L 25.068879958026237 27.190200301585875 A 0.8065363652113893 0.8065363652113893 0 0 0 23.820433584722963 27.32389756772956 L 22.711986060798978 29.04552882829234 A 16.04226843433356 16.04226843433356 0 0 0 21.73791540109748 30.787855933090842 L 21.564049137752704 31.15007731505913 A 1.1210001137271017 1.1210001137271017 0 0 0 21.977778823038953 32.58405149126885 L 29.741287494304615 37.46754888125855 A 0.6290322580645172 0.6290322580645172 0 0 1 29.741287494304615 38.532451118741456 L 21.977778823038953 43.415948508731155 A 1.1210001137271037 1.1210001137271037 0 0 0 21.564049137752704 44.84992268494088 L 21.737915401097474 45.21214406690915 A 16.042268434333444 16.042268434333444 0 0 0 22.71198606079897 46.95447117170765 L 23.820433584722963 48.67610243227044 A 0.8065363652113905 0.8065363652113905 0 0 0 25.068879958026237 48.809799698414125 L 30.48660729614291 43.392072360297455 A 3.717289105740458 3.717289105740458 0 0 0 31.45061523367271 41.71852789572439 L 32.18218351796505 38.966437683386516 A 3.7619047619047783 3.7619047619047783 0 0 0 32.18218351796505 37.03356231661348 z M 35.28636711052492 37.03356231661348 A 3.761904761904779 3.761904761904779 0 0 1 35.28636711052492 38.966437683386516 L 34.910663106043 40.379800366913734 A 0.5800000000000001 0.5800000000000001 0 0 0 35.62019963308627 41.089336893957 L 37.03356231661348 40.71363288947508 A 3.7619047619047623 3.7619047619047623 0 0 1 38.966437683386516 40.71363288947508 L 40.379800366913734 41.089336893957 A 0.5800000000000001 0.5800000000000001 0 0 0 41.089336893957 40.37980036691373 L 40.71363288947508 38.96643768338652 A 3.7619047619047614 3.7619047619047614 0 0 1 40.71363288947508 37.03356231661349 L 41.089336893957 35.620199633086266 A 0.5800000000000005 0.5800000000000005 0 0 0 40.37980036691373 34.910663106043 L 38.96643768338652 35.28636711052492 A 3.7619047619047463 3.7619047619047463 0 0 1 37.033562316613484 35.28636711052492 L 35.62019963308627 34.910663106043 A 0.58 0.58 0 0 0 34.910663106043 35.620199633086266 z M 34.28147210427562 44.5493847663273 A 3.7172891057404853 3.7172891057404853 0 0 0 32.60792763970255 45.5133927038571 L 27.190200301585882 50.93112004197377 A 0.806536365211388 0.806536365211388 0 0 0 27.323897567729563 52.17956641527704 L 29.04552882829234 53.28801393920102 A 16.042268434333543 16.042268434333543 0 0 0 30.787855933090846 54.26208459890252 L 31.15007731505913 54.435950862247296 A 1.1210001137271017 1.1210001137271017 0 0 0 32.58405149126885 54.02222117696105 L 37.46754888125855 46.258712505695385 A 0.6290322580645172 0.6290322580645172 0 0 1 38.53245111874145 46.258712505695385 L 43.415948508731155 54.02222117696105 A 1.1210001137271037 1.1210001137271037 0 0 0 44.84992268494088 54.435950862247296 L 45.21214406690915 54.262084598902526 A 16.04226843433352 16.04226843433352 0 0 0 46.95447117170765 53.28801393920103 L 48.67610243227044 52.17956641527704 A 0.8065363652113905 0.8065363652113905 0 0 0 48.809799698414125 50.93112004197376 L 43.392072360297455 45.513392703857086 A 3.7172891057404582 3.7172891057404582 0 0 0 41.71852789572439 44.54938476632729 L 38.966437683386516 43.81781648203495 A 3.7619047619047645 3.7619047619047645 0 0 0 37.033562316613484 43.81781648203495 z M 44.5493847663273 41.71852789572438 A 3.7172891057404853 3.7172891057404853 0 0 0 45.5133927038571 43.39207236029745 L 50.93112004197377 48.80979969841412 A 0.8065363652113893 0.8065363652113893 0 0 0 52.179566415277044 48.67610243227044 L 53.28801393920102 46.95447117170767 A 16.042268434333597 16.042268434333597 0 0 0 54.26208459890252 45.21214406690916 L 54.435950862247296 44.84992268494087 A 1.1210001137271017 1.1210001137271017 0 0 0 54.02222117696105 43.41594850873115 L 46.258712505695385 38.53245111874145 A 0.6290322580645172 0.6290322580645172 0 0 1 46.258712505695385 37.46754888125855 L 54.02222117696105 32.58405149126885 A 1.1210001137271037 1.1210001137271037 0 0 0 54.435950862247296 31.150077315059125 L 54.262084598902526 30.78785593309085 A 16.042268434333486 16.042268434333486 0 0 0 53.28801393920103 29.045528828292348 L 52.17956641527704 27.32389756772956 A 0.806536365211392 0.806536365211392 0 0 0 50.93112004197376 27.190200301585875 L 45.51339270385709 32.607927639702545 A 3.7172891057404582 3.7172891057404582 0 0 0 44.54938476632729 34.28147210427561 L 43.81781648203495 37.033562316613484 A 3.7619047619047623 3.7619047619047623 0 0 0 43.81781648203495 38.966437683386516 z M 41.71852789572438 31.450615233672703 A 3.7172891057404853 3.7172891057404853 0 0 0 43.39207236029745 30.486607296142903 L 48.809799698414125 25.068879958026233 A 0.8065363652113905 0.8065363652113905 0 0 0 48.67610243227044 23.82043358472296 L 46.95447117170767 22.711986060798978 A 16.04226843433353 16.04226843433353 0 0 0 45.21214406690916 21.73791540109748 L 44.84992268494087 21.564049137752704 A 1.1210001137271002 1.1210001137271002 0 0 0 43.41594850873115 21.977778823038953 L 38.53245111874145 29.741287494304615 A 0.6290322580645172 0.6290322580645172 0 0 1 37.46754888125855 29.741287494304615 L 32.58405149126885 21.977778823038953 A 1.1210001137271037 1.1210001137271037 0 0 0 31.150077315059125 21.564049137752704 L 30.787855933090853 21.737915401097474 A 16.042268434333486 16.042268434333486 0 0 0 29.045528828292348 22.71198606079897 L 27.32389756772956 23.820433584722963 A 0.8065363652113905 0.8065363652113905 0 0 0 27.190200301585875 25.068879958026237 L 32.60792763970255 30.486607296142903 A 3.717289105740482 3.717289105740482 0 0 0 34.281472104275615 31.4506152336727 L 37.033562316613484 32.18218351796505 A 3.7619047619047485 3.7619047619047485 0 0 0 38.96643768338652 32.18218351796505 z M 20.87859676348779 21.538394473715933 A 0.5274725274725274 0.5274725274725274 0 0 0 21.53839447371593 20.878596763487792 L 19.860693894755798 15.455332101267835 A 3.232558139534888 3.232558139534888 0 0 1 19.860693894755798 13.544667898732179 L 20.19768266663326 12.455332101267828 A 0.7374038913016864 0.7374038913016864 0 0 0 19.493217057672947 11.5 L 12.5 11.5 A 1 1 0 0 0 11.5 12.5 L 11.5 19.493217057672943 A 0.7374038913016889 0.7374038913016889 0 0 0 12.455332101267828 20.19768266663326 L 13.544667898732175 19.860693894755798 A 3.232558139534899 3.232558139534899 0 0 1 15.455332101267832 19.8606938947558 z M 15.455332101267828 23.000963122617694 A 3.2325581395348975 3.2325581395348975 0 0 0 13.544667898732172 23.00096312261769 L 12.455332101267828 23.33795189449515 A 1.3561089272729079 1.3561089272729079 0 0 0 11.5 24.633486285534836 L 11.5 32.875474155251034 A 0.707127611245383 0.707127611245383 0 0 0 12.442818298931467 33.542167006812875 L 13.557181701068547 33.14821486533333 A 2.828677102634638 2.828677102634638 0 0 1 15.442818298931478 33.14821486533333 L 16.446726565735112 33.50311867031998 A 0.8480369539304424 0.8480369539304424 0 0 0 17.54434001569649 32.9381209211302 L 17.544340015696488 32.9381209211302 A 10.736183554028022 10.736183554028022 0 0 1 18.18280877236579 31.261615764350847 L 19.1142695225565 29.321072534786857 A 16.042268434333458 16.042268434333458 0 0 1 20.088340182257998 27.578745429988352 L 21.23530947265043 25.797282489591602 A 0.7592436226278999 0.7592436226278999 0 0 0 20.821316963499328 24.660944051221684 z M 20.821316963499328 51.339055948778324 A 0.7592436226278968 0.7592436226278968 0 0 0 21.23530947265043 50.202717510408405 L 20.088340182257987 48.421254570011634 A 16.04226843433355 16.04226843433355 0 0 1 19.11426952255649 46.678927465213135 L 18.182808772365796 44.738384235649185 A 10.736183554028006 10.736183554028006 0 0 1 17.54434001569649 43.061879078869815 L 17.54434001569649 43.061879078869815 A 0.848036953930451 0.848036953930451 0 0 0 16.4467265657351 42.49688132968003 L 15.442818298931474 42.85178513466668 A 2.8286771026346242 2.8286771026346242 0 0 1 13.557181701068544 42.85178513466668 L 12.442818298931467 42.457832993187125 A 0.7071276112453797 0.7071276112453797 0 0 0 11.5 43.124525844748966 L 11.5 51.366513714465164 A 1.3561089272729099 1.3561089272729099 0 0 0 12.455332101267828 52.66204810550485 L 13.544667898732182 52.99903687738231 A 3.2325581395348864 3.2325581395348864 0 0 0 15.455332101267839 52.99903687738231 z M 52.99903687738231 15.455332101267832 A 3.2325581395348957 3.2325581395348957 0 0 0 52.99903687738231 13.544667898732175 L 52.66204810550485 12.455332101267828 A 1.3561089272729079 1.3561089272729079 0 0 0 51.36651371446517 11.5 L 43.12452584474897 11.5 A 0.707127611245383 0.707127611245383 0 0 0 42.457832993187125 12.442818298931467 L 42.85178513466668 13.557181701068547 A 2.828677102634634 2.828677102634634 0 0 1 42.85178513466667 15.442818298931478 L 42.49688132968002 16.446726565735112 A 0.8480369539304424 0.8480369539304424 0 0 0 43.06187907886981 17.54434001569649 L 43.06187907886981 17.544340015696488 A 10.736183554027983 10.736183554027983 0 0 1 44.73838423564916 18.18280877236579 L 46.67892746521315 19.114269522556505 A 16.042268434333522 16.042268434333522 0 0 1 48.421254570011655 20.088340182258 L 50.2027175104084 21.23530947265043 A 0.7592436226279029 0.7592436226279029 0 0 0 51.33905594877832 20.821316963499328 z M 24.660944051221684 20.821316963499328 A 0.7592436226278957 0.7592436226278957 0 0 0 25.797282489591602 21.23530947265043 L 27.578745429988366 20.088340182257987 A 16.042268434333593 16.042268434333593 0 0 1 29.32107253478687 19.11426952255649 L 31.261615764350815 18.182808772365796 A 10.736183554028006 10.736183554028006 0 0 1 32.938120921130185 17.54434001569649 L 32.938120921130185 17.54434001569649 A 0.848036953930451 0.848036953930451 0 0 0 33.50311867031997 16.4467265657351 L 33.14821486533333 15.442818298931478 A 2.8286771026346296 2.8286771026346296 0 0 1 33.14821486533333 13.557181701068547 L 33.542167006812875 12.442818298931467 A 0.7071276112453805 0.7071276112453805 0 0 0 32.875474155251034 11.5 L 24.633486285534843 11.5 A 1.3561089272729134 1.3561089272729134 0 0 0 23.337951894495156 12.455332101267828 L 23.00096312261769 13.544667898732179 A 3.2325581395348864 3.2325581395348864 0 0 0 23.00096312261769 15.455332101267835 z M 15.442818298931474 36.330164137425335 A 2.8286771026346447 2.8286771026346447 0 0 0 13.55718170106854 36.330164137425335 L 12.38867844084509 36.74325591772613 A 1.332965305932421 1.332965305932421 0 0 0 11.5 38 L 11.5 38 A 1.3329653059324258 1.3329653059324258 0 0 0 12.388678440845087 39.25674408227387 L 13.557181701068544 39.66983586257467 A 2.8286771026346242 2.8286771026346242 0 0 0 15.442818298931474 39.66983586257467 L 18.354845462036923 38.64036977031791 A 0.942127456180541 0.942127456180541 0 0 1 19.574240162573144 39.268054554247215 L 19.81321411529996 40.098393076564896 A 0.7519785596390117 0.7519785596390117 0 0 0 20.936251269775738 40.52693389019092 L 24.106967470541548 38.532451118741456 A 0.6290322580645168 0.6290322580645168 0 0 0 24.106967470541548 37.46754888125855 L 20.936251269775738 35.47306610980909 A 0.7519785596390131 0.7519785596390131 0 0 0 19.81321411529996 35.90160692343511 L 19.574240162573144 36.73194544575279 A 0.9421274561805429 0.9421274561805429 0 0 1 18.35484546203692 37.3596302296821 z M 39.669835862574665 15.442818298931474 A 2.8286771026346402 2.8286771026346402 0 0 0 39.66983586257467 13.55718170106854 L 39.25674408227387 12.38867844084509 A 1.3329653059324211 1.3329653059324211 0 0 0 38 11.5 L 38 11.5 A 1.3329653059324222 1.3329653059324222 0 0 0 36.74325591772613 12.388678440845087 L 36.330164137425335 13.557181701068544 A 2.828677102634629 2.828677102634629 0 0 0 36.330164137425335 15.442818298931474 L 37.3596302296821 18.354845462036923 A 0.9421274561805411 0.9421274561805411 0 0 1 36.731945445752785 19.574240162573144 L 35.901606923435104 19.81321411529996 A 0.7519785596390117 0.7519785596390117 0 0 0 35.47306610980908 20.936251269775738 L 37.46754888125855 24.106967470541548 A 0.629032258064517 0.629032258064517 0 0 0 38.53245111874145 24.106967470541548 L 40.52693389019092 20.936251269775738 A 0.7519785596390131 0.7519785596390131 0 0 0 40.098393076564896 19.81321411529996 L 39.268054554247215 19.574240162573144 A 0.9421274561805429 0.9421274561805429 0 0 1 38.6403697703179 18.35484546203692 z M 0.5 1.5 A 1 1 0 0 1 1.5 0.5 L 74.5 0.5 A 1 1 0 0 1 75.5 1.5 L 75.5 74.5 A 1 1 0 0 1 74.5 75.5 L 1.5 75.5 A 1 1 0 0 1 0.5 74.5 z" style="fill:#f6ae00; stroke:#000000; stroke-width:0.5; " />
</g>
<defs>
  <thevaportrail:screendesigner xmlns:thevaportrail="http://thevaportrail.com">
    <thevaportrail:screendesignerdata id="ID_ScreenDesignerData">
      {"reserved":0,"frame":{"shape":"0","width":75,"height":75,"radius":110,"aspect":1,"lockAspect":false,"rotation":0,"border":11,"measure":2,"render":0,"margin":0,"fixedBounds":false,"docWidth":200,"docHeight":200},"tiling":{"shape":"0","size":47,"centered":true,"orthocentered":false,"segwidth":3,"showTiles":false,"mirrorSeg":true,"rotateSeg":1,"endCaps":0,"offsetX":0,"offsetY":0,"rotation":0},"general":{"units":2,"renderLine":true,"renderFill":true,"showBounds":false,"drillHoleSize":0.1,"fillColor":"#f6ae00","lineColor":"#000000","backColor":"#ffffff","renderBack":false,"cornerSize":1,"cornerStyle":"1","curveFrameOutsideCorner":true,"curveFrameInsideCorner":true,"curveFrameToSegmentCorner":true,"curveSegmentCorners":true,"lineWidth":0.5,"dpi":72,"showMinBounds":false},"diags":{"showCenterPoly":false,"showSegments":false},"drillholes":{"dhFrameVertex":false,"dhFrameVertexSize":0.5,"dhFrameVertexOffset":0},"elements":[{"ptA":{"x":0.5000000000000001,"y":0.28235294117647036},"ptB":{"x":0.3852941176470588,"y":0.09999999999999992},"mirror":true,"rotate":1,"visible":true,"width":3,"id":10},{"ptA":{"x":0.38529411764705884,"y":0.09999999999999996},"ptB":{"x":0.4520859120155488,"y":0.08077711839093972},"mirror":true,"rotate":1,"visible":true,"width":3,"id":11},{"ptA":{"x":0.3852941176470588,"y":0.09999999999999992},"ptB":{"x":0.3117647058823529,"y":0.13529411764705876},"mirror":true,"rotate":1,"visible":true,"width":3,"id":13},{"ptA":{"x":0.3117647058823529,"y":0.13529411764705876},"ptB":{"x":0.20441176470588218,"y":0.2044117647058823},"mirror":true,"rotate":1,"visible":true,"width":3,"id":14},{"ptA":{"x":0.20441176470588224,"y":0.20441176470588251},"ptB":{"x":0.3838235294117647,"y":0.3838235294117649},"mirror":false,"rotate":1,"visible":true,"width":3,"id":15},{"ptA":{"x":0.4520859120155488,"y":0.08077711839093972},"ptB":{"x":0.4235294117647058,"y":2.952020380843048e-16},"mirror":true,"rotate":1,"visible":true,"width":3,"id":16},{"ptA":{"x":0.2044117647058824,"y":0.20441176470588243},"ptB":{"x":0.1411764705882353,"y":2.632058146774298e-16},"mirror":true,"rotate":1,"visible":true,"width":3,"id":17},{"ptA":{"x":0.3838235294117647,"y":0.3838235294117649},"ptB":{"x":0.5,"y":0.41470588235294126},"mirror":true,"rotate":1,"visible":true,"width":3,"id":18}],"nextElementId":19,"dirty":false}
    </thevaportrail:screendesignerdata>
  </thevaportrail:screendesigner>
</defs>
</svg>
