<?xml version="1.0" encoding="UTF-8" standalone="no"?>
<!-- Created with Polygonia (https://Polygonia.design) -->

<svg 
    xmlns="http://www.w3.org/2000/svg" 
    xmlns:svg="http://www.w3.org/2000/svg" 
    xmlns:inkscape="http://www.inkscape.org/namespaces/inkscape"
    width="75.5mm" 
    height="75.5mm" 
    viewBox="0 0 75.5 75.5" 
    version="1.1" 
>

<g 
    inkscape:label="Layer 1"
    inkscape:groupmode="layer"
    id="layer1"
    transform="translate(0,0)"
>
<path d=" M 33.167707005381544 63.542893218813454 Q 33.87481378656809 64.25 34.87481378656809 64.25 L 36.96776500482261 64.25 Q 37.96776500482261 64.25 38.906445381523426 63.9052114410297 L 41.16958299014402 63.073933857950436 Q 42.10826336684484 62.729145298980136 41.46773659407313 61.96120945962723 L 37.88081642534413 57.660804437452526 Q 37.24028965257242 56.89286859809961 36.274363826283356 57.15168764320213 L 33.22928188978411 57.9676148889737 Q 32.263356063495046 58.226433934076226 31.556249282308496 57.51932715288967 L 29.32709459158082 55.290172462162005 Q 28.61998781039427 54.58306568097545 27.681307433693455 54.927854239945745 L 22.42474093514001 56.85865415134673 Q 21.486060558439195 57.20344271031702 22.126587331210903 57.971378549669936 L 25.713507499939915 62.27178357184462 Q 26.354034272711623 63.03971941119753 27.31996009900069 62.78090036609501 L 30.36504203549994 61.964973120323435 Q 31.330967861789006 61.70615407522092 32.03807464297556 62.41326085640746 z M 19.32578531359021 63.264684668258 Q 19.155040776242306 64.25 20.155040776242306 64.25 L 22.45693953341571 64.25 Q 23.45693953341571 64.25 22.816412760644003 63.482064160647084 L 20.535580356676945 60.74754466666174 Q 19.895053583905238 59.97960882730882 19.724309046557334 60.964924159050824 z M 16.9583735305168 59.3561972638773 Q 17.129118067864702 58.3708819321353 16.1438027361227 58.541626469483205 L 12.235315331742001 59.21892525099229 Q 11.25 59.3896697883402 11.25 60.3896697883402 L 11.25 63.25 Q 11.25 64.25 12.25 64.25 L 15.11033021165979 64.25 Q 16.11033021165979 64.25 16.281074749007693 63.264684668258 z M 55.90218790537948 63.5165391646989 Q 54.97950464785481 63.13098034132214 53.99418931611281 63.30172487867004 L 49.50729434895597 64.0792554626521 Q 48.52197901721397 64.25 49.52197901721397 64.25 L 56.65743766689533 64.25 Q 57.65743766689533 64.25 56.734754409370666 63.864441176623245 z M 64.25 49.52197901721395 Q 64.25 48.52197901721395 64.0792554626521 49.50729434895595 L 63.30172487867003 53.99418931611281 Q 63.13098034132213 54.97950464785481 63.516539164698884 55.90218790537948 L 63.864441176623245 56.73475440937071 Q 64.25 57.657437666895376 64.25 56.657437666895376 z M 57.20141838401088 59.73398025152259 Q 56.942599338908366 60.69990607781166 57.86528259643303 61.085464901188416 L 62.47429387722978 63.011418311377696 Q 63.39697713475445 63.39697713475445 63.01141831137769 62.47429387722978 L 61.0854649011884 57.86528259643304 Q 60.69990607781164 56.94259933890837 59.73398025152257 57.20141838401089 L 58.702537506082166 57.477792634690594 Q 57.7366116797931 57.736611679793114 57.47779263469057 58.70253750608218 z M 55.0283028919074 56.25304776329901 Q 55.287121937009914 55.287121937009935 56.25304776329899 55.028302891907416 L 59.29812969979823 54.21237564613584 Q 60.264055526087304 53.95355660103331 60.434800063435205 52.96824126929131 L 61.390961539813944 47.45052118916134 Q 61.561706077161844 46.46520585741934 60.57639074541984 46.63595039476725 L 55.05867066528988 47.592111871145974 Q 54.07335533354788 47.762856408493874 53.81453628844535 48.72878223478294 L 52.998609042673785 51.773864171282185 Q 52.739789997571265 52.73978999757126 51.7738641712822 52.99860904267378 L 48.728782234782955 53.81453628844535 Q 47.76285640849388 54.07335533354787 47.592111871145974 55.058670665289874 L 46.635950394767235 60.57639074541985 Q 46.46520585741933 61.56170607716185 47.45052118916133 61.390961539813944 L 52.96824126929131 60.43480006343522 Q 53.95355660103331 60.26405552608732 54.212375646135825 59.29812969979825 z M 24.39029821109565 32.16808788954571 Q 25.321174755201664 31.802753987979976 24.398491497676996 31.417195164603218 L 23.37527597079829 30.989627230117712 Q 22.45259271327362 30.604068406740957 21.46727738153162 30.774812944088865 L 16.532336149753686 31.629985121273318 Q 15.547020818011685 31.800729658621226 16.314956657364597 32.44125643139293 L 20.161155041675332 35.64932787733326 Q 20.929090881028245 36.28985465010497 21.920937433379564 36.41729254316979 L 23.020852040445952 36.55861561350106 Q 24.01269859279727 36.686053506565884 23.38920280859726 35.90422679489326 L 21.982061531353974 34.1397551408347 Q 21.358565747153968 33.35792842916209 22.28944229125998 32.992594527596346 z M 25.542736350087154 33.86431204340005 Q 24.61185980598114 34.22964594496579 25.23535559018115 35.011472656638404 L 26.239356483968933 36.27043019444058 Q 26.86285226816894 37.05225690611319 27.85469882052026 37.179694799178016 L 34.98964661971617 38.096432083288626 Q 35.98149317206749 38.22386997635345 35.18624780760764 38.830157705328006 L 29.46557040088343 43.1915493815621 Q 28.670325036423584 43.79783711053666 28.52127520399019 44.7866667963024 L 28.28126369344877 46.37895645321889 Q 28.13221386101538 47.367786138984634 29.12104354678112 47.218736306551236 L 30.7133332036976 46.97872479600982 Q 31.702162889463345 46.82967496357642 32.3084506184379 46.03442959911658 L 36.669842294671994 40.31375219239236 Q 37.27613002364656 39.51850682793251 37.40356791671138 40.51035338028383 L 38.32030520082199 47.64530117947974 Q 38.447743093886814 48.63714773183106 39.22956980555943 49.26064351603106 L 40.48852734336161 50.26464440981884 Q 41.27035405503423 50.88814019401885 41.635687956599966 49.95726364991283 L 42.22397671972866 48.45829460156924 Q 42.5893106212944 47.52741805746323 42.20375179791764 46.60473479993856 L 39.430195674955826 39.96732010910373 Q 39.04463685157907 39.04463685157907 39.96732010910373 39.430195674955826 L 46.60473479993857 42.20375179791764 Q 47.52741805746323 42.589310621294395 48.45829460156925 42.223976719728654 L 49.95726364991284 41.63568795659996 Q 50.88814019401885 41.27035405503422 50.26464440981885 40.4885273433616 L 49.26064351603106 39.22956980555943 Q 48.63714773183106 38.44774309388681 47.64530117947974 38.320305200821984 L 40.51035338028383 37.40356791671138 Q 39.51850682793251 37.27613002364656 40.31375219239236 36.669842294671994 L 46.03442959911658 32.3084506184379 Q 46.829674963576416 31.702162889463345 46.978724796009814 30.7133332036976 L 47.21873630655123 29.12104354678111 Q 47.36778613898463 28.132213861015366 46.37895645321888 28.281263693448764 L 44.7866667963024 28.521275203990182 Q 43.797837110536655 28.670325036423577 43.1915493815621 29.465570400883422 L 38.830157705328006 35.18624780760764 Q 38.22386997635344 35.98149317206749 38.09643208328862 34.98964661971617 L 37.17969479917801 27.854698820520266 Q 37.052256906113186 26.862852268168947 36.27043019444057 26.23935648396894 L 35.01147265663839 25.235355590181154 Q 34.22964594496577 24.611859805981148 33.864312043400034 25.542736350087164 L 33.27602328027133 27.04170539843076 Q 32.9106893787056 27.972581942536777 33.29624820208235 28.89526520006144 L 36.069804325044174 35.53267989089627 Q 36.45536314842093 36.455363148420936 35.53267989089626 36.069804325044174 L 28.895265200061434 33.29624820208237 Q 27.97258194253677 32.91068937870561 27.041705398430757 33.276023280271346 z M 32.99259452759632 22.289442291259995 Q 33.35792842916205 21.35856574715398 34.13975514083467 21.982061531353985 L 35.90422679489326 23.38920280859728 Q 36.68605350656588 24.012698592797285 36.558615613501054 23.020852040445966 L 36.417292543169786 21.920937433379567 Q 36.289854650104964 20.929090881028248 35.649327877333256 20.161155041675336 L 32.4412564313929 16.314956657364597 Q 31.80072965862119 15.547020818011685 31.629985121273286 16.532336149753686 L 30.774812944088836 21.467277381531627 Q 30.60406840674093 22.45259271327363 30.989627230117687 23.3752759707983 L 31.417195164603196 24.398491497677004 Q 31.802753987979955 25.32117475520167 32.16808788954569 24.390298211095654 z M 26.2360714162024 46.52888508094843 Q 26.385121248635794 45.54005539518269 25.589875884175953 46.146343124157255 L 24.707983427628506 46.81868979673814 Q 23.91273806316866 47.424977525712706 23.567949504198367 48.36365790241352 L 21.841079718360774 53.06502846390871 Q 21.496291159390477 54.00370884060953 22.434971536091293 53.65892028163923 L 27.13634209758649 51.93205049580163 Q 28.07502247428731 51.58726193683134 28.68131020326187 50.792016572371494 L 29.353656875842752 49.91012411582406 Q 29.959944604817313 49.114878751364216 28.971114919051573 49.263928583797615 L 26.73946700375766 49.600312849574706 Q 25.75063731799192 49.7493626820081 25.899687150425315 48.76053299624236 z M 39.595773205106745 52.110797191402725 Q 38.81394649343412 51.48730140720272 38.941384386498946 52.47914795955404 L 39.082707456830214 53.579062566620436 Q 39.210145349895036 54.570909118971755 39.850672122666744 55.338844958324664 L 43.058743568607085 59.1850433426354 Q 43.69927034137879 59.95297918198831 43.8700148787267 58.96766385024631 L 44.72518705591116 54.03272261846837 Q 44.89593159325906 53.04740728672637 44.5103727698823 52.1247240292017 L 44.0828048353968 51.101508502323 Q 43.69724601202004 50.17882524479833 43.331912110454304 51.10970178890435 L 42.50740547240368 53.210557708740005 Q 42.14207157083794 54.141434252846025 41.36024485916533 53.517938468646015 z M 51.109701788904346 43.3319121104543 Q 50.17882524479833 43.69724601202003 51.101508502323 44.082804835396786 L 52.12472402920171 44.510372769882295 Q 53.047407286726376 44.89593159325905 54.032722618468384 44.72518705591115 L 58.96766385024631 43.87001487872671 Q 59.95297918198831 43.699270341378806 59.1850433426354 43.0587435686071 L 55.338844958324664 39.850672122666744 Q 54.570909118971755 39.210145349895036 53.579062566620436 39.08270745683021 L 52.47914795955404 38.941384386498946 Q 51.48730140720272 38.81394649343412 52.11079719140273 39.59577320510674 L 53.51793846864602 41.360244859165306 Q 54.141434252846025 42.14207157083793 53.21055770874001 42.50740547240366 z M 49.26392858379761 28.971114919051573 Q 49.11487875136421 29.959944604817316 49.91012411582405 29.353656875842752 L 50.792016572371494 28.68131020326187 Q 51.58726193683133 28.07502247428731 51.932050495801626 27.13634209758649 L 53.65892028163921 22.434971536091297 Q 54.003708840609505 21.49629115939048 53.06502846390869 21.841079718360774 L 48.36365790241351 23.567949504198367 Q 47.42497752571269 23.91273806316866 46.818689796738134 24.707983427628502 L 46.14634312415725 25.589875884175942 Q 45.540055395182684 26.385121248635784 46.52888508094843 26.236071416202385 L 48.76053299624234 25.8996871504253 Q 49.74936268200808 25.750637317991902 49.60031284957469 26.739467003757646 z M 24.674506449429693 27.207068316941402 Q 24.415687404327173 28.17299414323047 25.33837066185184 28.558552966607227 L 29.947381942648597 30.484506376796517 Q 30.870065200173265 30.870065200173276 30.484506376796503 29.947381942648608 L 28.55855296660721 25.33837066185185 Q 28.172994143230447 24.415687404327187 27.20706831694138 24.674506449429707 L 26.175625571500973 24.95088070010941 Q 25.209699745211907 25.20969974521193 24.950880700109387 26.175625571500994 z M 22.50139095732621 23.72613582871782 Q 22.760210002428728 22.76021000242875 23.726135828717794 22.50139095732623 L 26.771217765217038 21.685463711554654 Q 27.737143591506104 21.42664466645213 27.90788812885401 20.44132933471013 L 28.86404960523275 14.923609254580157 Q 29.034794142580655 13.938293922838156 28.049478810838654 14.10903846018606 L 22.531758730708685 15.065199936564785 Q 21.546443398966684 15.235944473912689 21.287624353864164 16.201870300201758 L 20.47169710809259 19.246952236701002 Q 20.21287806299007 20.21287806299007 19.246952236701002 20.47169710809259 L 16.201870300201765 21.287624353864167 Q 15.235944473912696 21.546443398966687 15.065199936564792 22.531758730708688 L 14.109038460186053 28.049478810838693 Q 13.938293922838149 29.034794142580694 14.92360925458015 28.864049605232786 L 20.441329334710115 27.90788812885404 Q 21.426644666452116 27.737143591506133 21.685463711554636 26.771217765217067 z M 22.081806556822265 43.802243740284176 Q 22.788913338008815 44.50935052147072 23.584158702468656 43.90306279249616 L 27.556588922596237 40.87451864209176 Q 28.35183428705608 40.26823091311719 27.35998773470476 40.14079302005237 L 22.405490174111065 39.50421195938319 Q 21.413643621759746 39.37677406631837 21.154824576657226 40.34269989260744 L 20.878450325977532 41.37414263804785 Q 20.619631280875012 42.340068464336916 21.32673806206156 43.04717524552346 z M 17.980672847110327 43.94375071769152 Q 17.27356606592378 43.236643936504976 17.5323851110263 42.2707181102159 L 18.34831235679787 39.22563617371666 Q 18.60713140190039 38.25971034742759 17.839195562547477 37.619183574655885 L 13.538790540372766 34.03226340592688 Q 12.770854701019854 33.39173663315517 12.42606614204955 34.330417009855985 L 11.594788558970304 36.5935546184765 Q 11.25 37.53223499517732 11.25 38.53223499517732 L 11.25 40.62518621343192 Q 11.25 41.62518621343192 11.957106781186546 42.33229299461846 L 13.086739143592531 43.46192535702444 Q 13.793845924779077 44.169032138210994 13.535026879676558 45.13495796450006 L 12.719099633904985 48.18003990099931 Q 12.460280588802465 49.14596572728838 13.228216428155378 49.786492500060085 L 17.52862145033007 53.3734126687891 Q 18.296557289682983 54.01393944156081 18.64134584865328 53.07525906485999 L 20.57214576005425 47.81869256630655 Q 20.91693431902455 46.880012189605736 20.209827537838002 46.17290540841919 z M 35.15730010739257 54.34517542334277 Q 36.12322593368164 54.086356378240254 35.995788040616816 53.094509825888935 L 35.359206979947636 48.14001226529524 Q 35.231769086882814 47.14816571294392 34.62548135790825 47.943411077403766 L 31.596937207503853 51.915841297531344 Q 30.990649478529292 52.71108666199119 31.697756259715838 53.418193443177735 L 32.45282475447655 54.17326193793845 Q 33.1599315356631 54.88036871912499 34.125857361952164 54.621549674022475 z M 50.8254935505703 48.292931683058605 Q 51.08431259567283 47.32700585676953 50.16162933814816 46.94144703339278 L 45.552618057351395 45.01549362320348 Q 44.62993479982673 44.62993479982673 45.01549362320349 45.552618057351395 L 46.941447033392784 50.16162933814815 Q 47.327005856769546 51.08431259567282 48.29293168305861 50.8254935505703 L 49.32437442849901 50.5491192998906 Q 50.290300254788086 50.29030025478808 50.549119299890606 49.32437442849901 z M 53.418193443177735 31.69775625971583 Q 52.71108666199119 30.990649478529285 51.915841297531344 31.59693720750385 L 47.943411077403766 34.62548135790825 Q 47.14816571294392 35.23176908688281 48.14001226529524 35.35920697994763 L 53.094509825888935 35.99578804061681 Q 54.086356378240254 36.12322593368164 54.34517542334277 35.157300107392565 L 54.621549674022475 34.12585736195216 Q 54.88036871912499 33.15993153566309 54.17326193793845 32.452824754476545 z M 57.51932715288967 31.556249282308485 Q 58.226433934076226 32.26335606349504 57.9676148889737 33.229281889784104 L 57.15168764320213 36.27436382628335 Q 56.89286859809961 37.24028965257242 57.660804437452526 37.88081642534413 L 61.96120945962723 41.46773659407316 Q 62.72914529898014 42.10826336684487 63.07393385795044 41.16958299014405 L 63.9052114410297 38.9064453815235 Q 64.25 37.96776500482268 64.25 36.96776500482268 L 64.25 34.87481378656809 Q 64.25 33.87481378656809 63.542893218813454 33.167707005381544 L 62.41326085640747 32.03807464297556 Q 61.70615407522092 31.330967861789016 61.96497312032344 30.365042035499947 L 62.78090036609501 27.319960099000703 Q 63.03971941119754 26.354034272711633 62.27178357184462 25.713507499939926 L 57.97137854966991 22.12658733121091 Q 57.203442710317 21.486060558439203 56.858654151346705 22.424740935140022 L 54.927854239945745 27.681307433693448 Q 54.58306568097545 28.619987810394267 55.290172462162005 29.327094591580817 z M 40.342699892607435 21.154824576657226 Q 39.37677406631836 21.413643621759746 39.504211959383184 22.405490174111065 L 40.140793020052364 27.35998773470476 Q 40.26823091311719 28.35183428705608 40.87451864209175 27.556588922596234 L 43.903062792496144 23.584158702468656 Q 44.50935052147071 22.788913338008815 43.80224374028416 22.081806556822265 L 43.047175245523455 21.326738062061555 Q 42.34006846433691 20.61963128087501 41.374142638047836 20.87845032597753 z M 42.27071811021589 17.532385111026297 Q 43.23664393650496 17.273566065923777 43.94375071769151 17.980672847110323 L 46.17290540841918 20.209827537838 Q 46.88001218960573 20.916934319024545 47.818692566306545 20.57214576005425 L 53.07525906485997 18.64134584865328 Q 54.01393944156079 18.296557289682987 53.37341266878908 17.528621450330075 L 49.78649250006008 13.228216428155381 Q 49.14596572728837 12.460280588802469 48.180039900999304 12.719099633904989 L 45.13495796450007 13.535026879676561 Q 44.169032138210994 13.793845924779081 43.46192535702445 13.086739143592535 L 42.33229299461846 11.957106781186546 Q 41.62518621343191 11.25 40.62518621343191 11.25 L 38.5322349951774 11.25 Q 37.5322349951774 11.25 36.59355461847658 11.5947885589703 L 34.33041700985596 12.42606614204957 Q 33.39173663315514 12.770854701019871 34.03226340592685 13.538790540372784 L 37.61918357465587 17.839195562547477 Q 38.25971034742758 18.60713140190039 39.225636173716644 18.34831235679787 z M 14.535075840949169 55.77569095344266 Q 15.52039117269117 55.60494641609476 14.752455333338258 54.964419643323055 L 12.017935839352912 52.683587239356 Q 11.25 52.04306046658429 11.25 53.04306046658429 L 11.25 55.344959223757684 Q 11.25 56.344959223757684 12.235315331742001 56.174214686409776 z M 63.264684668258 16.281074749007715 Q 64.25 16.110330211659814 64.25 15.110330211659814 L 64.25 12.25 Q 64.25 11.25 63.25 11.25 L 60.38966978834021 11.25 Q 59.38966978834021 11.25 59.2189252509923 12.235315331742001 L 58.54162646948319 16.143802736122712 Q 58.370881932135276 17.129118067864713 59.35619726387728 16.958373530516813 z M 60.964924159050824 19.724309046557348 Q 59.97960882730882 19.89505358390525 60.74754466666174 20.535580356676956 L 63.482064160647084 22.816412760644006 Q 64.25 23.456939533415714 64.25 22.456939533415714 L 64.25 20.15504077624233 Q 64.25 19.15504077624233 63.264684668258 19.32578531359023 z M 54.96441964332304 14.752455333338261 Q 55.60494641609475 15.520391172691173 55.775690953442655 14.535075840949172 L 56.174214686409776 12.235315331742001 Q 56.344959223757684 11.25 55.344959223757684 11.25 L 53.04306046658429 11.25 Q 52.04306046658429 11.25 52.683587239355994 12.017935839352912 z M 19.59781209462052 11.98346083530111 Q 20.520495352145186 12.369019658677868 21.505810683887187 12.198275121329964 L 25.992705651044055 11.420744537347904 Q 26.978020982786056 11.25 25.978020982786056 11.25 L 18.84256233310465 11.25 Q 17.84256233310465 11.25 18.765245590629316 11.635558823376758 z M 11.25 25.978020982786056 Q 11.25 26.978020982786056 11.420744537347904 25.992705651044055 L 12.198275121329967 21.50581068388719 Q 12.369019658677871 20.52049535214519 11.983460835301116 19.597812094620522 L 11.635558823376755 18.765245590629306 Q 11.25 17.842562333104638 11.25 18.842562333104638 z M 18.29858161598911 15.766019748477419 Q 18.55740066109163 14.80009392218835 17.634717403566963 14.414535098811594 L 13.025706122770213 12.488581688622304 Q 12.103022865245546 12.10302286524555 12.488581688622304 13.025706122770217 L 14.414535098811598 17.634717403566967 Q 14.800093922188356 18.557400661091634 15.766019748477426 18.29858161598911 L 16.797462493917823 18.022207365309416 Q 17.763388320206893 17.763388320206893 18.022207365309413 16.797462493917823 z M 0.25 1.25 Q 0.25 0.25 1.25 0.25 L 74.25 0.25 Q 75.25 0.25 75.25 1.25 L 75.25 74.25 Q 75.25 75.25 74.25 75.25 L 1.25 75.25 Q 0.25 75.25 0.25 74.25 z" style="fill:#936921; stroke:#050505; stroke-width:0.25; " />
</g>
<defs>
  <thevaportrail:screendesigner xmlns:thevaportrail="http://thevaportrail.com">
    <thevaportrail:screendesignerdata id="ID_ScreenDesignerData">
      {"reserved":0,"frame":{"shape":"0","width":75,"height":75,"radius":112,"rotation":0,"border":11,"measure":"2","render":0,"margin":0,"fixedBounds":false,"docWidth":200,"docHeight":200,"aspect":1,"lockAspect":false},"tiling":{"shape":"3","size":46,"segwidth":2,"showTiles":false,"mirrorSeg":true,"rotateSeg":1,"endCaps":0,"centered":true,"orthocentered":false,"offsetX":0,"offsetY":0,"rotation":15},"general":{"units":2,"renderLine":true,"renderFill":true,"showBounds":false,"drillHoleSize":0.01,"fillColor":"#936921","lineColor":"#050505","backColor":"#d3e7f4","renderBack":false,"cornerSize":1,"cornerStyle":"2","curveFrameOutsideCorner":true,"curveFrameInsideCorner":true,"curveFrameToSegmentCorner":true,"curveSegmentCorners":true,"lineWidth":0.25,"dpi":72,"showMinBounds":false},"diags":{"showCenterPoly":false,"showSegments":false},"elements":[{"ptA":{"x":0.5,"y":0.39117647058823546},"ptB":{"x":0.5855194301215918,"y":0.182881874202463},"mirror":true,"rotate":1,"visible":true,"width":3,"id":1},{"ptA":{"x":0.5855194301215918,"y":0.18288187420246305},"ptB":{"x":0.75,"y":0.06698729810778087},"mirror":true,"rotate":1,"visible":true,"width":3,"id":2},{"ptA":{"x":0.5855194301215918,"y":0.18288187420246305},"ptB":{"x":0.5,"y":0.13350720820081868},"mirror":true,"rotate":1,"visible":true,"width":3,"id":3},{"ptA":{"x":0.4999999999999999,"y":0.06698729810778087},"ptB":{"x":0.6461581647817842,"y":0.14015524422084197},"mirror":true,"rotate":1,"visible":false,"width":3,"id":4},{"ptA":{"x":0.6904745202321646,"y":0.10892951808930024},"ptB":{"x":0.6132883066264203,"y":0.06698729810778087},"mirror":true,"rotate":1,"visible":false,"width":3,"id":5},{"ptA":{"x":0.5388226396096351,"y":0.29661847322293744},"ptB":{"x":0.6438885443077151,"y":0.25077773063191205},"mirror":true,"rotate":1,"visible":true,"width":2,"id":7}],"nextElementId":8,"dirty":false,"designID":9,"drillholes":{"dhFrameVertex":false,"dhFrameVertexSize":0.5,"dhFrameVertexOffset":0}}
    </thevaportrail:screendesignerdata>
  </thevaportrail:screendesigner>
</defs>
</svg>
